<svg width="115" height="200" viewBox="0 0 115 200" fill="none" xmlns="http://www.w3.org/2000/svg">
<path d="M71.5472 181.969C72.714 185.417 74.9123 188.308 78.1419 190.642C82.4104 193.651 87.1906 194.796 92.4825 194.077L96.34 193.05C99.7806 191.603 102.702 189.335 105.103 186.245C108.097 181.878 109.145 177.128 108.246 171.994C108.197 171.131 107.928 169.908 107.44 168.325C106.139 164.75 103.859 161.757 100.601 159.345C96.3327 156.337 91.5808 155.27 86.3455 156.144C84.7346 156.562 83.5018 156.929 82.647 157.245C79.1782 158.613 76.2572 160.881 73.8841 164.049C70.7342 168.474 69.5945 173.214 70.465 178.27C70.847 179.804 71.2078 181.037 71.5472 181.969Z" fill="#EABFA1"/>
<path d="M92.4835 194.077C87.1916 194.796 82.4114 193.651 78.1429 190.642C74.9132 188.308 72.715 185.417 71.5482 181.969C71.2087 181.037 70.848 179.804 70.466 178.27C69.5955 173.214 70.7352 168.474 73.8851 164.049C76.2582 160.881 79.1791 158.613 82.6479 157.245C83.5028 156.929 84.7356 156.562 86.3464 156.144C91.5818 155.27 96.3337 156.337 100.602 159.345C103.86 161.757 106.14 164.75 107.441 168.325C107.929 169.908 108.198 171.131 108.247 171.994C109.146 177.128 108.098 181.878 105.104 186.245C102.702 189.335 99.7815 191.603 96.341 193.05L92.4835 194.077Z" stroke="black" stroke-width="2.68633" stroke-miterlimit="10"/>
<path d="M92.224 139.956C89.1915 135.257 84.3027 125.337 77.5577 110.196C73.1883 100.613 68.2355 89.3066 62.6993 76.2759L46.5279 81.9802C46.7051 83.6778 47.9326 89.3514 50.2106 99.0007C53.0191 110.834 55.9865 122.257 59.1128 133.268C60.7325 138.929 62.6779 146.938 64.949 157.295C67.8921 170.225 70.1343 178.565 71.6757 182.316L107.579 169.064C104.595 161.351 99.4768 151.648 92.224 139.956Z" fill="#EABFA1"/>
<path d="M62.6993 76.2759C68.2355 89.3066 73.1883 100.613 77.5577 110.196C84.3027 125.337 89.1915 135.257 92.224 139.956C99.4768 151.648 104.595 161.351 107.579 169.064M71.6757 182.316C70.1343 178.565 67.8921 170.225 64.949 157.295C62.6779 146.938 60.7325 138.929 59.1128 133.268C55.9865 122.257 53.0191 110.834 50.2106 99.0007C47.9326 89.3514 46.7051 83.6778 46.5279 81.9802" stroke="black" stroke-width="2.68633" stroke-linecap="round" stroke-linejoin="round"/>
<path d="M59.7184 77.3786C61.6654 78.4798 63.2519 77.8212 64.4779 75.4027C67.1576 63.2741 68.3647 56.6304 68.0991 55.4717C67.9444 54.8544 66.619 52.0348 64.1228 47.0128C61.4954 41.7635 60.0826 38.7924 59.8842 38.0994C59.642 37.3307 59.0313 36.6223 58.0519 35.9742C56.7899 35.1858 56.0335 34.6619 55.7828 34.4023L50.046 28.9209C49.1307 28.0343 48.5145 28.5394 48.1975 30.436C47.8368 32.2568 47.7935 33.492 48.0676 34.1415C48.8378 36.5234 49.9851 38.3358 51.5096 39.5787C52.043 39.9785 52.5983 40.4162 53.1754 40.8917C53.5894 41.2593 53.9553 41.8056 54.2732 42.5309C55.1308 45.0643 54.9759 48.0278 53.8085 51.4212C52.5856 54.5438 51.8099 56.9559 51.4811 58.6575C50.8526 61.2373 50.8258 63.7238 51.4006 66.1169C51.9553 68.8243 53.0881 71.0485 54.7993 72.7894C57.796 75.7086 59.4357 77.2383 59.7184 77.3786Z" fill="#EABFA1"/>
<path d="M47.9441 32.0938C47.909 31.5088 47.9335 30.94 48.0179 30.3873C48.338 29.1949 49.0139 28.706 50.0456 28.9207L55.7823 34.4021C56.033 34.6616 56.7894 35.1855 58.0515 35.9739C59.0309 36.622 59.6416 37.3304 59.8837 38.0991C60.0821 38.7921 61.495 41.7633 64.1224 47.0125C66.6186 52.0346 67.944 54.8542 68.0987 55.4714C68.3642 56.6301 66.5149 63.9956 62.5505 77.5677" stroke="black" stroke-width="2.00104" stroke-linecap="round" stroke-linejoin="round"/>
<path d="M47.9149 32.5651C47.5393 33.4868 48.5527 35.6787 50.9551 39.1408C51.6549 40.3528 52.8401 42.1435 54.5106 44.5128C55.5838 46.7208 55.6093 48.7738 54.5871 50.6718" stroke="black" stroke-width="2.00104" stroke-linecap="round" stroke-linejoin="round"/>
<path d="M59.2565 79.4548C60.6841 78.4335 61.7313 77.2776 62.3982 75.987C62.9573 74.8592 63.2876 73.5097 63.3891 71.9385C63.5545 70.1289 63.6298 68.7745 63.615 67.8753L64.033 63.0967C63.808 61.3095 63.2507 59.2088 62.361 56.7946C59.2079 48.0144 55.4113 40.9149 50.9713 35.4959C49.2367 33.365 47.3853 30.5952 45.4171 27.1864C43.306 23.3553 41.644 20.4768 40.4311 18.5508C34.0369 8.0003 29.6844 2.7328 27.3735 2.74824C25.8873 2.79454 25.1911 3.59764 25.2849 5.15756L25.7841 7.59423L39.3787 34.2839C37.3496 31.8178 36.0508 30.0923 35.4822 29.1076C35.0886 28.4258 34.2143 28.2217 32.8593 28.4953C31.5044 28.7688 30.3244 29.3454 29.3193 30.2249C28.6173 30.9306 28.6017 32.3011 29.2726 34.3366C29.5702 35.376 29.9596 36.3124 30.4407 37.1457C28.4243 37.4964 26.8596 38.1929 25.7468 39.2352C25.0448 39.9408 24.9257 41.2194 25.3897 43.0711C25.5678 44.0783 25.8377 44.9824 26.1993 45.7834C25.7651 45.7301 25.2348 46.0346 24.6085 46.6967L23.9619 47.673C23.7261 48.3127 23.5606 50.1223 23.4655 53.1019C23.2828 55.9299 23.2747 57.7501 23.4411 58.5623C23.5958 59.1795 25.6541 62.1331 29.6162 67.4231C33.9164 73.124 36.2852 76.3533 36.7226 77.1108C37.7723 78.9288 40.6463 81.1116 45.3447 83.659C50.1702 83.1077 53.3245 82.4568 54.8075 81.7063C56.7568 80.8898 58.2398 80.1393 59.2565 79.4548Z" fill="#EABFA1"/>
<path d="M47.4294 84.1276C41.3409 81.2687 37.7718 78.9302 36.7221 77.1122C36.2847 76.3547 33.9159 73.1255 29.6157 67.4245C25.6536 62.1345 23.5953 59.181 23.4406 58.5637C23.2742 57.7515 23.2824 55.9314 23.465 53.1033C23.5601 50.1238 23.7256 48.3141 23.9614 47.6745L24.608 46.6981C25.2343 46.036 25.7646 45.7316 26.1988 45.7849C25.8372 44.9839 25.5673 44.0798 25.3892 43.0726C24.9252 41.2209 25.0443 39.9422 25.7463 39.2366C26.8592 38.1943 28.4238 37.4978 30.4402 37.1471C29.9591 36.3138 29.5698 35.3775 29.2722 34.338C28.6012 32.3025 28.6168 30.932 29.3188 30.2264C30.3239 29.3468 31.5039 28.7702 32.8589 28.4967C34.2138 28.2231 35.0881 28.4272 35.4817 29.109C36.0503 30.0938 37.3491 31.8192 39.3782 34.2853L25.7836 7.59565L25.2844 5.15898C25.1907 3.59907 25.8869 2.79596 27.373 2.74966C29.6839 2.73422 34.0364 8.00172 40.4306 18.5522L47.8089 30.807C49.4592 33.4906 52.0701 37.4886 55.6417 42.801C56.1986 43.5907 57.34 45.3056 59.0661 47.9457C60.6609 50.3585 61.4935 52.1499 61.5638 53.3198" stroke="black" stroke-width="2.00104" stroke-linecap="round" stroke-linejoin="round"/>
<path d="M26.2 45.7849L26.7472 48.0427L26.6829 51.8618M30.4414 37.1471L31.5838 41.4839" stroke="#8C7361" stroke-width="0.937197" stroke-linecap="round" stroke-linejoin="round"/>
</svg>
