<svg width="262" height="128" viewBox="0 0 262 128" fill="none" xmlns="http://www.w3.org/2000/svg">
<path fill-rule="evenodd" clip-rule="evenodd" d="M149.403 112.639C152.818 113.667 156.045 114.64 156.808 114.269C157.625 113.872 157.662 111.439 157.699 108.995C157.736 106.551 157.773 104.096 158.591 103.652C159.162 103.342 162.242 103.473 166.103 103.638C173.301 103.945 183.212 104.368 184.644 102.262C186.018 100.241 182.775 93.7329 180.154 88.4708C178.579 85.309 177.228 82.5972 177.237 81.5791C177.25 80.223 180.329 77.1995 183.408 74.176C186.487 71.1524 189.566 68.1289 189.579 66.7727C189.595 64.9944 186.241 61.9025 183.325 59.214C181.794 57.8021 180.383 56.5014 179.645 55.5607C177.525 52.8604 176.31 50.8073 175.682 49.0372C192.677 43.9677 236.868 29.077 258.359 18.5982L177.23 31.5113C177.235 31.2496 177.237 30.9828 177.237 30.7107C175.689 29.4203 176.167 23.147 176.63 17.0626C177.053 11.508 177.463 6.1107 176.31 4.80566C173.894 2.07107 159.193 7.90455 156.192 9.77596C155.527 10.1905 152.732 8.90711 149.669 7.50083C146.472 6.03332 142.984 4.43193 141.321 4.48644C139.431 4.54842 133.804 6.91232 129.185 8.85275C125.849 10.2541 123.039 11.4345 122.542 11.3677C121.62 11.2439 120.512 9.93934 119.271 8.47897C117.597 6.50771 115.681 4.25252 113.656 4.23404C110.13 4.20187 99.7387 13.3297 99.7387 13.3297C99.7387 13.3297 88.4311 4.00391 85.99 3.98164C84.7847 3.97064 81.9759 4.76963 79.1843 5.56374C76.3223 6.3779 73.4783 7.18694 72.3987 7.11269C71.4793 7.04945 69.5488 5.80686 67.4539 4.45844C64.6898 2.67921 61.6394 0.715736 60.2477 1.03424C59.0245 1.31419 58.9826 5.90932 58.9403 10.5413C58.898 15.1733 58.8554 19.8421 57.6309 20.2694C56.4861 20.6689 52.3308 19.4312 47.9527 18.127C42.9646 16.6412 37.6872 15.0692 36.2432 15.7342C34.383 16.5909 34.6007 25.2529 34.7476 31.0982C34.8148 33.7729 34.8672 35.8578 34.699 36.3355C34.4395 37.0719 29.9902 36.3801 25.3634 35.6608C20.4298 34.8937 15.2944 34.0953 14.8219 34.9635C14.3515 35.8278 16.5048 41.9156 18.6213 47.8993C20.6249 53.5638 22.5955 59.135 22.2757 60.0925C22.0094 60.8901 18.5327 62.435 14.4642 64.2429C8.48781 66.8985 1.23465 70.1215 1.0058 72.3762C0.775815 74.6421 7.25615 81.2504 12.557 86.6559C16.1215 90.2908 19.1527 93.3819 19.2516 94.243C19.3747 95.3149 17.1864 97.6127 15.0318 99.8751C12.8811 102.133 10.764 104.356 11.0132 105.289C11.3385 106.507 17.5929 107.686 22.4144 108.594C24.9871 109.079 27.1518 109.487 27.79 109.782C28.7004 110.205 28.6864 112.472 28.6716 114.853C28.6567 117.27 28.641 119.804 29.5897 120.649C30.8198 121.745 39.7236 120.105 46.5761 118.844C50.2155 118.174 53.2763 117.61 54.3015 117.619C55.7185 117.632 59.3873 119.475 63.2065 121.392C67.352 123.474 71.6748 125.644 73.4872 125.661C75.3714 125.678 79.2695 123.41 82.8469 121.329C85.8806 119.564 88.6838 117.933 89.8329 117.944C90.9518 117.954 94.4607 119.557 98.3425 121.33C103.147 123.525 108.524 125.981 110.646 126C112.73 126.019 115.773 123.725 118.552 121.63C120.889 119.868 123.04 118.247 124.279 118.258C125.441 118.268 127.531 119.062 129.717 119.891C132.637 120.999 135.726 122.171 136.998 121.629C138.165 121.131 138.517 118.482 138.858 115.916C139.166 113.595 139.466 111.342 140.351 110.809C141.346 110.211 145.498 111.462 149.403 112.639Z" fill="white"/>
<path d="M156.808 114.269L157.245 115.168V115.168L156.808 114.269ZM149.403 112.639L149.691 111.681L149.403 112.639ZM157.699 108.995L156.699 108.98V108.98L157.699 108.995ZM158.591 103.652L158.113 102.773V102.773L158.591 103.652ZM166.103 103.638L166.061 104.637L166.103 103.638ZM184.644 102.262L183.817 101.7L184.644 102.262ZM180.154 88.4708L181.049 88.0249L180.154 88.4708ZM177.237 81.5791L176.237 81.57V81.57L177.237 81.5791ZM183.408 74.176L184.109 74.8895L183.408 74.176ZM189.579 66.7727L190.579 66.7819V66.7819L189.579 66.7727ZM183.325 59.214L182.648 59.9492L183.325 59.214ZM179.645 55.5607L180.431 54.9431L179.645 55.5607ZM175.682 49.0372L175.396 48.079C175.133 48.1573 174.914 48.34 174.79 48.5844C174.666 48.8288 174.648 49.1134 174.74 49.3717L175.682 49.0372ZM258.359 18.5982L258.798 19.497C259.243 19.2799 259.462 18.7695 259.313 18.2971C259.164 17.8248 258.691 17.5327 258.202 17.6106L258.359 18.5982ZM177.23 31.5113L176.23 31.4932C176.225 31.789 176.351 32.072 176.574 32.2661C176.797 32.4601 177.095 32.5454 177.387 32.4989L177.23 31.5113ZM177.237 30.7107H178.237C178.237 30.4139 178.105 30.1325 177.878 29.9425L177.237 30.7107ZM176.63 17.0626L177.627 17.1385L176.63 17.0626ZM176.31 4.80566L177.06 4.1435L176.31 4.80566ZM156.192 9.77596L156.721 10.6245L156.192 9.77596ZM149.669 7.50083L150.086 6.59203L149.669 7.50083ZM141.321 4.48644L141.354 5.48591L141.321 4.48644ZM129.185 8.85275L129.572 9.7747H129.572L129.185 8.85275ZM122.542 11.3677L122.675 10.3766L122.542 11.3677ZM119.271 8.47897L120.033 7.83159L119.271 8.47897ZM113.656 4.23404L113.665 3.23408L113.656 4.23404ZM99.7387 13.3297L99.1024 14.1012C99.4809 14.4134 100.03 14.4048 100.399 14.081L99.7387 13.3297ZM85.99 3.98164L85.9991 2.98167L85.99 3.98164ZM79.1843 5.56374L79.458 6.52558L79.1843 5.56374ZM72.3987 7.11269L72.4673 6.11504L72.3987 7.11269ZM67.4539 4.45844L66.9127 5.29931L67.4539 4.45844ZM60.2477 1.03424L60.4708 2.00904L60.2477 1.03424ZM58.9403 10.5413L57.9403 10.5322L58.9403 10.5413ZM57.6309 20.2694L57.3014 19.3253H57.3014L57.6309 20.2694ZM47.9527 18.127L48.2382 17.1687V17.1687L47.9527 18.127ZM36.2432 15.7342L36.6615 16.6425L36.2432 15.7342ZM34.7476 31.0982L33.7479 31.1233V31.1233L34.7476 31.0982ZM34.699 36.3355L33.7558 36.0032V36.0032L34.699 36.3355ZM25.3634 35.6608L25.517 34.6726L25.3634 35.6608ZM14.8219 34.9635L15.7002 35.4416L15.7002 35.4416L14.8219 34.9635ZM18.6213 47.8993L17.6785 48.2327L18.6213 47.8993ZM22.2757 60.0925L21.3272 59.7758L22.2757 60.0925ZM14.4642 64.2429L14.8703 65.1567H14.8703L14.4642 64.2429ZM1.0058 72.3762L0.0109227 72.2752V72.2752L1.0058 72.3762ZM12.557 86.6559L11.843 87.3561L12.557 86.6559ZM19.2516 94.243L20.2451 94.1289V94.1289L19.2516 94.243ZM15.0318 99.8751L15.756 100.565V100.565L15.0318 99.8751ZM11.0132 105.289L10.0471 105.547V105.547L11.0132 105.289ZM22.4144 108.594L22.5995 107.611L22.4144 108.594ZM27.79 109.782L27.3693 110.69V110.69L27.79 109.782ZM28.6716 114.853L27.6717 114.847V114.847L28.6716 114.853ZM29.5897 120.649L30.2548 119.902V119.902L29.5897 120.649ZM46.5761 118.844L46.7572 119.827L46.5761 118.844ZM54.3015 117.619L54.3106 116.619L54.3015 117.619ZM63.2065 121.392L62.7577 122.286V122.286L63.2065 121.392ZM73.4872 125.661L73.478 126.661L73.4872 125.661ZM82.8469 121.329L82.344 120.465V120.465L82.8469 121.329ZM89.8329 117.944L89.842 116.944L89.8329 117.944ZM98.3425 121.33L98.758 120.42L98.3425 121.33ZM110.646 126L110.655 125L110.646 126ZM118.552 121.63L119.154 122.428V122.428L118.552 121.63ZM124.279 118.258L124.288 117.258L124.279 118.258ZM129.717 119.891L130.072 118.956L129.717 119.891ZM136.998 121.629L136.605 120.709V120.709L136.998 121.629ZM138.858 115.916L137.866 115.784V115.784L138.858 115.916ZM140.351 110.809L140.866 111.666L140.351 110.809ZM261.193 18.3266C261.689 18.0836 261.894 17.4846 261.651 16.9886C261.408 16.4926 260.809 16.2875 260.313 16.5305L261.193 18.3266ZM257.921 17.6993C257.425 17.9413 257.218 18.54 257.461 19.0364C257.703 19.5328 258.301 19.7391 258.798 19.497L257.921 17.6993ZM156.371 113.37C156.456 113.328 156.482 113.344 156.37 113.348C156.274 113.352 156.129 113.346 155.928 113.322C155.524 113.274 154.988 113.166 154.338 113.007C153.04 112.69 151.408 112.198 149.691 111.681L149.115 113.596C150.814 114.108 152.502 114.617 153.862 114.95C154.541 115.116 155.168 115.246 155.691 115.308C155.953 115.339 156.212 115.357 156.452 115.347C156.675 115.338 156.969 115.303 157.245 115.168L156.371 113.37ZM156.699 108.98C156.68 110.219 156.662 111.38 156.553 112.28C156.499 112.731 156.428 113.06 156.349 113.275C156.258 113.52 156.222 113.442 156.371 113.37L157.245 115.168C157.802 114.898 158.078 114.366 158.225 113.968C158.384 113.538 158.477 113.031 158.539 112.519C158.663 111.492 158.681 110.215 158.699 109.01L156.699 108.98ZM158.113 102.773C157.582 103.062 157.316 103.587 157.171 103.992C157.014 104.427 156.921 104.938 156.859 105.455C156.736 106.493 156.717 107.775 156.699 108.98L158.699 109.01C158.718 107.771 158.736 106.604 158.845 105.692C158.899 105.235 158.971 104.896 159.052 104.669C159.145 104.412 159.191 104.464 159.068 104.531L158.113 102.773ZM166.146 102.639C164.221 102.557 162.468 102.482 161.124 102.467C160.454 102.459 159.864 102.467 159.396 102.498C159.162 102.514 158.941 102.536 158.746 102.571C158.572 102.601 158.331 102.655 158.113 102.773L159.068 104.531C158.993 104.571 158.973 104.561 159.092 104.54C159.19 104.523 159.333 104.507 159.529 104.493C159.92 104.467 160.449 104.459 161.102 104.467C162.407 104.481 164.124 104.554 166.061 104.637L166.146 102.639ZM183.817 101.7C183.786 101.745 183.665 101.872 183.322 102.026C182.992 102.174 182.538 102.311 181.957 102.428C180.794 102.664 179.261 102.796 177.502 102.855C173.991 102.973 169.755 102.793 166.146 102.639L166.061 104.637C169.65 104.79 173.967 104.975 177.569 104.854C179.367 104.794 181.03 104.657 182.353 104.389C183.015 104.255 183.626 104.081 184.141 103.851C184.642 103.626 185.144 103.305 185.471 102.824L183.817 101.7ZM179.259 88.9167C180.576 91.5601 182.017 94.4556 182.963 96.9379C183.436 98.1809 183.766 99.2729 183.902 100.148C184.046 101.075 183.934 101.527 183.817 101.7L185.471 102.824C186.04 101.987 186.038 100.867 185.879 99.8411C185.711 98.7633 185.325 97.5204 184.832 96.226C183.844 93.6333 182.354 90.6435 181.049 88.0249L179.259 88.9167ZM176.237 81.57C176.233 82.0018 176.364 82.4962 176.52 82.959C176.684 83.4487 176.915 84.0145 177.188 84.6272C177.732 85.8521 178.475 87.3426 179.259 88.9167L181.049 88.0249C180.258 86.4372 179.538 84.9909 179.015 83.815C178.754 83.2272 178.551 82.7265 178.416 82.3226C178.271 81.8919 178.237 81.6655 178.237 81.5883L176.237 81.57ZM182.707 73.4624C181.176 74.9664 179.609 76.5046 178.425 77.8392C177.833 78.5059 177.313 79.1484 176.935 79.7309C176.585 80.2695 176.243 80.9225 176.237 81.57L178.237 81.5883C178.237 81.5957 178.238 81.534 178.302 81.3818C178.363 81.2362 178.463 81.0495 178.612 80.82C178.911 80.3597 179.356 79.803 179.921 79.1664C181.049 77.8944 182.561 76.409 184.109 74.8895L182.707 73.4624ZM188.579 66.7636C188.579 66.7562 188.578 66.8179 188.514 66.9701C188.453 67.1157 188.353 67.3024 188.204 67.5319C187.905 67.9922 187.46 68.5489 186.895 69.1855C185.767 70.4575 184.255 71.9429 182.707 73.4624L184.109 74.8895C185.64 73.3855 187.208 71.8473 188.392 70.5127C188.983 69.846 189.503 69.2035 189.881 68.621C190.231 68.0824 190.573 67.4294 190.579 66.7819L188.579 66.7636ZM182.648 59.9492C184.115 61.3021 185.645 62.7142 186.809 64.0044C187.391 64.6493 187.855 65.2352 188.167 65.7431C188.494 66.2758 188.58 66.6046 188.579 66.7636L190.579 66.7819C190.585 66.0517 190.259 65.3271 189.871 64.6959C189.467 64.0399 188.913 63.3513 188.294 62.6649C187.056 61.2925 185.452 59.8143 184.003 58.4788L182.648 59.9492ZM178.858 56.1782C179.659 57.1985 181.147 58.5653 182.648 59.9492L184.003 58.4788C182.442 57.0388 181.107 55.8044 180.431 54.9431L178.858 56.1782ZM174.74 49.3717C175.42 51.2884 176.708 53.4401 178.858 56.1782L180.431 54.9431C178.341 52.2807 177.2 50.3261 176.624 48.7028L174.74 49.3717ZM175.968 49.9955C192.972 44.9232 237.228 30.0136 258.798 19.497L257.921 17.6993C236.507 28.1404 192.382 43.0122 175.396 48.079L175.968 49.9955ZM258.202 17.6106L177.073 30.5237L177.387 32.4989L258.517 19.5857L258.202 17.6106ZM176.237 30.7107C176.237 30.9768 176.235 31.2376 176.23 31.4932L178.23 31.5294C178.235 31.2616 178.237 30.9888 178.237 30.7107H176.237ZM175.633 16.9867C175.402 20.0156 175.163 23.1507 175.179 25.6909C175.188 26.9596 175.259 28.1251 175.442 29.0776C175.614 29.974 175.924 30.9177 176.597 31.4788L177.878 29.9425C177.777 29.8585 177.566 29.5341 177.406 28.7012C177.257 27.9245 177.187 26.8994 177.179 25.6779C177.163 23.2378 177.394 20.194 177.627 17.1385L175.633 16.9867ZM175.561 5.46781C175.644 5.56149 175.804 5.88807 175.917 6.63934C176.023 7.34121 176.067 8.25282 176.061 9.33536C176.05 11.4991 175.845 14.1977 175.633 16.9867L177.627 17.1385C177.837 14.3728 178.049 11.5955 178.061 9.34569C178.067 8.22146 178.023 7.19189 177.895 6.34116C177.774 5.53981 177.553 4.70235 177.06 4.1435L175.561 5.46781ZM156.721 10.6245C158.115 9.75499 162.447 7.85892 166.767 6.51864C168.918 5.85122 171.005 5.34109 172.677 5.15961C173.515 5.06863 174.204 5.06561 174.723 5.14566C175.259 5.22838 175.482 5.37854 175.561 5.46781L177.06 4.1435C176.534 3.54913 175.769 3.28339 175.028 3.16902C174.268 3.05198 173.388 3.07069 172.461 3.17129C170.604 3.37296 168.375 3.92542 166.174 4.60847C161.789 5.96915 157.27 7.92551 155.663 8.92743L156.721 10.6245ZM149.251 8.40964C150.772 9.10781 152.271 9.79626 153.473 10.2554C154.072 10.484 154.638 10.6718 155.119 10.7721C155.36 10.8222 155.613 10.8579 155.859 10.8548C156.091 10.8519 156.417 10.814 156.721 10.6245L155.663 8.92743C155.801 8.84149 155.894 8.8542 155.834 8.85497C155.788 8.85555 155.69 8.84801 155.527 8.81409C155.202 8.74638 154.753 8.6032 154.187 8.38699C153.059 7.9565 151.628 7.30013 150.086 6.59203L149.251 8.40964ZM141.354 5.48591C141.622 5.47712 142.039 5.53709 142.616 5.69331C143.179 5.84573 143.834 6.07282 144.556 6.35454C146.003 6.91878 147.646 7.67265 149.251 8.40964L150.086 6.59203C148.495 5.8615 146.795 5.08092 145.283 4.49122C144.526 4.19596 143.797 3.9412 143.139 3.76284C142.494 3.58826 141.852 3.46851 141.288 3.48698L141.354 5.48591ZM129.572 9.7747C131.886 8.8027 134.43 7.73405 136.63 6.90031C137.731 6.48339 138.731 6.13056 139.565 5.87948C140.425 5.62054 141.023 5.49677 141.354 5.48591L141.288 3.48698C140.675 3.5071 139.86 3.70206 138.988 3.96442C138.091 4.23464 137.042 4.60568 135.922 5.03004C133.682 5.87885 131.103 6.96236 128.798 7.93081L129.572 9.7747ZM122.409 12.3588C122.66 12.3926 122.909 12.3434 123.047 12.3133C123.221 12.2752 123.418 12.2187 123.625 12.1526C124.041 12.0196 124.567 11.8254 125.163 11.5921C126.359 11.1246 127.909 10.4735 129.572 9.7747L128.798 7.93081C127.125 8.63332 125.602 9.27309 124.435 9.72942C123.85 9.95808 123.371 10.134 123.016 10.2474C122.838 10.3045 122.708 10.3402 122.62 10.3594C122.496 10.3865 122.548 10.3596 122.675 10.3766L122.409 12.3588ZM118.509 9.12636C119.119 9.84428 119.742 10.5795 120.334 11.1468C120.888 11.6767 121.6 12.2502 122.409 12.3588L122.675 10.3766C122.562 10.3614 122.259 10.2207 121.717 9.70229C121.215 9.22124 120.664 8.57404 120.033 7.83159L118.509 9.12636ZM113.647 5.234C114.298 5.23994 115.054 5.61543 115.942 6.38123C116.813 7.13367 117.66 8.12695 118.509 9.12636L120.033 7.83159C119.208 6.85973 118.259 5.73979 117.248 4.8672C116.253 4.00797 115.039 3.24662 113.665 3.23408L113.647 5.234ZM99.7387 13.3297C100.399 14.081 100.399 14.081 100.399 14.081C100.399 14.081 100.399 14.0809 100.399 14.0808C100.399 14.0806 100.399 14.0803 100.4 14.0798C100.401 14.0788 100.403 14.0773 100.405 14.0753C100.41 14.0712 100.417 14.065 100.427 14.0566C100.446 14.04 100.474 14.015 100.512 13.9822C100.587 13.9167 100.699 13.82 100.843 13.6967C101.131 13.4501 101.546 13.097 102.056 12.6731C103.078 11.8246 104.473 10.6958 105.975 9.56993C107.48 8.44112 109.074 7.32972 110.495 6.50706C111.205 6.09554 111.854 5.76723 112.414 5.5452C112.991 5.31654 113.397 5.23172 113.647 5.234L113.665 3.23408C113.033 3.22832 112.343 3.4217 111.677 3.68607C110.993 3.95707 110.252 4.33659 109.492 4.77628C107.973 5.65604 106.308 6.82056 104.775 7.9697C103.238 9.12178 101.816 10.2729 100.778 11.1349C100.259 11.5662 99.8355 11.926 99.5411 12.1784C99.3939 12.3046 99.279 12.4041 99.2005 12.4722C99.1613 12.5063 99.1312 12.5326 99.1107 12.5504C99.1004 12.5594 99.0926 12.5662 99.0873 12.5709C99.0846 12.5733 99.0825 12.5751 99.0811 12.5763C99.0804 12.577 99.0798 12.5774 99.0794 12.5778C99.0792 12.578 99.0791 12.5781 99.0789 12.5782C99.0788 12.5783 99.0787 12.5784 99.7387 13.3297ZM85.9808 4.9816C85.98 4.98159 85.9854 4.98161 85.9979 4.98302C86.0102 4.98443 86.0278 4.98701 86.0511 4.99159C86.0984 5.00091 86.1614 5.01691 86.2414 5.04256C86.4032 5.09441 86.6071 5.17671 86.8535 5.29343C87.3468 5.52711 87.952 5.87071 88.6379 6.29958C90.0071 7.15565 91.6241 8.30468 93.1822 9.46584C94.7368 10.6245 96.2176 11.7839 97.3107 12.6544C97.857 13.0895 98.3057 13.4518 98.6175 13.7051C98.7734 13.8318 98.895 13.9311 98.9775 13.9987C99.0188 14.0324 99.0502 14.0582 99.0712 14.0755C99.0817 14.0842 99.0896 14.0907 99.0948 14.095C99.0975 14.0971 99.0994 14.0987 99.1007 14.0998C99.1013 14.1003 99.1018 14.1007 99.1021 14.1009C99.1022 14.101 99.1023 14.1011 99.1024 14.1012C99.1024 14.1012 99.1024 14.1012 99.7387 13.3297C100.375 12.5583 100.375 12.5582 100.375 12.5581C100.375 12.558 100.374 12.5579 100.374 12.5577C100.374 12.5574 100.373 12.5569 100.373 12.5563C100.371 12.5551 100.369 12.5533 100.366 12.551C100.36 12.5463 100.352 12.5394 100.341 12.5304C100.319 12.5124 100.287 12.4858 100.245 12.4513C100.16 12.3822 100.037 12.2812 99.8786 12.1528C99.5625 11.896 99.1087 11.5296 98.5567 11.09C97.4534 10.2113 95.9547 9.03781 94.3773 7.86221C92.8033 6.68914 91.1357 5.50255 89.6982 4.60376C88.9808 4.1552 88.302 3.76658 87.7097 3.48598C87.1599 3.22552 86.5422 2.98663 85.9991 2.98167L85.9808 4.9816ZM79.458 6.52558C80.8585 6.12719 82.2407 5.73412 83.4224 5.44145C84.6418 5.13944 85.5247 4.97743 85.9808 4.9816L85.9991 2.98167C85.25 2.97485 84.1258 3.20683 82.9416 3.5001C81.7197 3.8027 80.3018 4.20618 78.9107 4.60191L79.458 6.52558ZM72.3301 8.11033C72.7225 8.13732 73.1985 8.08347 73.6783 8.00255C74.1754 7.91869 74.7478 7.79281 75.3609 7.64267C76.5863 7.34261 78.0323 6.93114 79.458 6.52558L78.9107 4.60191C77.4744 5.0105 76.0673 5.41063 74.8853 5.70007C74.2947 5.84467 73.7748 5.95801 73.3456 6.03041C72.899 6.10574 72.6146 6.12518 72.4673 6.11504L72.3301 8.11033ZM66.9127 5.29931C67.9526 5.9687 68.9849 6.63356 69.874 7.13748C70.3194 7.38993 70.7486 7.61343 71.1401 7.78059C71.5142 7.94031 71.9309 8.08288 72.3301 8.11033L72.4673 6.11504C72.4068 6.11088 72.2374 6.07441 71.9255 5.94123C71.6309 5.81547 71.2742 5.63219 70.8602 5.39754C70.0305 4.92725 69.0501 4.29661 67.9952 3.61758L66.9127 5.29931ZM60.4708 2.00904C60.5544 1.9899 60.7969 1.98738 61.2687 2.13758C61.7142 2.27941 62.254 2.52086 62.8711 2.84499C64.1061 3.49374 65.52 4.40288 66.9127 5.29931L67.9952 3.61758C66.6237 2.73478 65.1302 1.77256 63.8011 1.0744C63.1361 0.725067 62.4796 0.424164 61.8754 0.231819C61.2975 0.0478439 60.6368 -0.0806656 60.0246 0.0594406L60.4708 2.00904ZM59.9402 10.5504C59.9615 8.21894 59.983 5.96124 60.1466 4.25101C60.229 3.39003 60.3422 2.73225 60.4842 2.29597C60.5554 2.07737 60.6174 1.96695 60.6488 1.92408C60.6768 1.88579 60.6255 1.97362 60.4708 2.00904L60.0246 0.0594406C59.564 0.164848 59.2439 0.45752 59.0353 0.742195C58.8302 1.0223 58.6879 1.353 58.5824 1.67692C58.3712 2.32572 58.242 3.15871 58.1557 4.06052C57.982 5.87583 57.9613 8.2317 57.9403 10.5322L59.9402 10.5504ZM57.9604 21.2136C58.3878 21.0644 58.6779 20.7601 58.869 20.4735C59.0604 20.1865 59.1974 19.8518 59.3013 19.5168C59.5091 18.8468 59.6381 17.9966 59.7246 17.0756C59.8984 15.2246 59.9193 12.8517 59.9402 10.5504L57.9403 10.5322C57.9191 12.8629 57.8975 15.1404 57.7333 16.8886C57.6508 17.7673 57.5369 18.4539 57.391 18.9243C57.3181 19.1594 57.2505 19.2958 57.205 19.3639C57.1593 19.4325 57.1802 19.3676 57.3014 19.3253L57.9604 21.2136ZM47.6672 19.0854C49.8483 19.7351 52.0083 20.3788 53.7669 20.8085C54.6456 21.0232 55.4503 21.1911 56.1228 21.2783C56.7404 21.3584 57.4289 21.3991 57.9604 21.2136L57.3014 19.3253C57.3061 19.3236 57.24 19.3441 57.058 19.3456C56.8872 19.347 56.6624 19.3315 56.38 19.2949C55.8146 19.2216 55.0922 19.0735 54.2417 18.8657C52.5419 18.4504 50.4353 17.8231 48.2382 17.1687L47.6672 19.0854ZM36.6615 16.6425C36.7543 16.5998 37.1098 16.537 37.8817 16.6137C38.5942 16.6845 39.4967 16.854 40.5416 17.0979C42.6295 17.5852 45.1642 18.3399 47.6672 19.0854L48.2382 17.1687C45.7531 16.4284 43.155 15.6541 40.9962 15.1503C39.9177 14.8985 38.9183 14.7069 38.0794 14.6235C37.2997 14.5461 36.454 14.5362 35.8249 14.8259L36.6615 16.6425ZM35.7473 31.0731C35.6736 28.1404 35.5841 24.5551 35.7413 21.5986C35.8202 20.1159 35.9591 18.8393 36.1779 17.9015C36.2877 17.4311 36.4079 17.089 36.526 16.8621C36.6514 16.6209 36.7184 16.6163 36.6615 16.6425L35.8249 14.8259C35.3029 15.0663 34.9698 15.5199 34.7517 15.9392C34.5261 16.3727 34.3594 16.8936 34.2302 17.4471C33.9713 18.5569 33.825 19.9718 33.7441 21.4924C33.5819 24.5423 33.6747 28.2107 33.7479 31.1233L35.7473 31.0731ZM35.6421 36.6678C35.7376 36.3968 35.7684 36.0413 35.7853 35.7498C35.8047 35.4165 35.8118 35.0049 35.8116 34.5402C35.8111 33.6098 35.7808 32.4057 35.7473 31.0731L33.7479 31.1233C33.7817 32.4654 33.8111 33.6411 33.8116 34.5412C33.8118 34.9918 33.8047 35.3582 33.7887 35.6337C33.7702 35.9511 33.7445 36.0353 33.7558 36.0032L35.6421 36.6678ZM25.2098 36.6489C27.5129 37.007 29.8134 37.365 31.5703 37.5391C32.4429 37.6256 33.2294 37.6721 33.8336 37.6405C34.1297 37.6251 34.4431 37.5885 34.72 37.4992C34.9492 37.4252 35.4471 37.2213 35.6421 36.6678L33.7558 36.0032C33.8859 35.6338 34.188 35.5693 34.1062 35.5957C34.0721 35.6067 33.9592 35.6312 33.7293 35.6432C33.2818 35.6666 32.6182 35.6332 31.7676 35.5489C30.0783 35.3814 27.8407 35.0339 25.517 34.6726L25.2098 36.6489ZM15.7002 35.4416C15.5672 35.686 15.3787 35.7063 15.5008 35.669C15.5856 35.643 15.7534 35.6124 16.0309 35.5967C16.5784 35.5659 17.3581 35.6022 18.3248 35.6944C20.2485 35.8779 22.7328 36.2638 25.2098 36.6489L25.517 34.6726C23.0604 34.2907 20.5103 33.8938 18.5147 33.7034C17.5218 33.6087 16.6207 33.5603 15.9182 33.5999C15.5707 33.6195 15.2213 33.6629 14.9155 33.7565C14.647 33.8387 14.1947 34.024 13.9436 34.4855L15.7002 35.4416ZM19.5641 47.5658C18.5037 44.568 17.4433 41.5696 16.7059 39.213C16.3364 38.0323 16.0562 37.0381 15.8972 36.2979C15.8172 35.9254 15.7742 35.6459 15.7609 35.4532C15.7543 35.3571 15.7567 35.3053 15.7586 35.2871C15.7616 35.2576 15.7603 35.3312 15.7002 35.4416L13.9436 34.4855C13.8247 34.7038 13.785 34.9263 13.769 35.0839C13.7517 35.2527 13.7543 35.4261 13.7657 35.5909C13.7883 35.92 13.853 36.3046 13.9418 36.7179C14.1203 37.5492 14.4225 38.613 14.7971 39.8103C15.5479 42.2096 16.6224 45.2469 17.6785 48.2327L19.5641 47.5658ZM23.2243 60.4092C23.3379 60.069 23.3157 59.6889 23.2871 59.42C23.2539 59.109 23.1858 58.7475 23.096 58.3563C22.9158 57.571 22.6272 56.5774 22.2731 55.4591C21.5639 53.2192 20.5639 50.3926 19.5641 47.5658L17.6785 48.2327C18.6823 51.0705 19.6694 53.8617 20.3664 56.0629C20.7155 57.1652 20.9848 58.098 21.1467 58.8036C21.228 59.1578 21.2771 59.4329 21.2983 59.632C21.324 59.8732 21.2935 59.8767 21.3272 59.7758L23.2243 60.4092ZM14.8703 65.1567C16.8961 64.2566 18.8083 63.4071 20.2462 62.6817C20.9632 62.3199 21.5927 61.974 22.0705 61.6548C22.3087 61.4957 22.5336 61.3272 22.7193 61.1506C22.8869 60.9914 23.1129 60.7427 23.2243 60.4092L21.3272 59.7758C21.372 59.6418 21.4311 59.6158 21.3417 59.7008C21.2704 59.7685 21.1483 59.8656 20.9595 59.9918C20.5833 60.243 20.0394 60.5459 19.3453 60.896C17.9612 61.5944 16.1008 62.4214 14.0581 63.329L14.8703 65.1567ZM2.0007 72.4772C2.00418 72.4427 2.03338 72.3166 2.20456 72.0885C2.37155 71.8659 2.63192 71.6019 2.99896 71.3008C3.73361 70.6983 4.78552 70.0358 6.06045 69.3368C8.60531 67.9414 11.8709 66.4895 14.8703 65.1567L14.0581 63.329C11.0811 64.6519 7.73193 66.1394 5.09889 67.5831C3.78488 68.3036 2.60708 69.0356 1.73062 69.7544C1.29211 70.1141 0.901578 70.4926 0.604764 70.8882C0.312131 71.2782 0.0646336 71.7461 0.0109227 72.2752L2.0007 72.4772ZM13.271 85.9558C10.6142 83.2465 7.69327 80.2673 5.46431 77.6852C4.34836 76.3925 3.42962 75.2263 2.80917 74.2621C2.49869 73.7795 2.27896 73.3721 2.14535 73.0428C2.00485 72.6963 1.99597 72.5238 2.0007 72.4772L0.0109227 72.2752C-0.0418422 72.7951 0.101468 73.3247 0.29202 73.7945C0.489499 74.2814 0.779752 74.8042 1.12726 75.3443C1.82284 76.4253 2.81238 77.6739 3.95038 78.9922C6.22929 81.6321 9.19899 84.6598 11.843 87.3561L13.271 85.9558ZM20.2451 94.1289C20.2087 93.812 20.0649 93.524 19.9503 93.3232C19.8213 93.0972 19.6528 92.8535 19.4627 92.6021C19.0813 92.098 18.5576 91.4908 17.9432 90.8163C16.7123 89.4648 15.0484 87.7683 13.271 85.9558L11.843 87.3561C13.6302 89.1785 15.2641 90.845 16.4646 92.163C17.066 92.8233 17.5414 93.3775 17.8676 93.8087C18.0313 94.025 18.1436 94.1925 18.2133 94.3145C18.2973 94.4619 18.2698 94.4588 18.2582 94.3571L20.2451 94.1289ZM15.756 100.565C16.8243 99.443 17.9416 98.2708 18.7736 97.2411C19.1892 96.7269 19.5601 96.2162 19.8228 95.7402C20.0634 95.3041 20.3134 94.7239 20.2451 94.1289L18.2582 94.3571C18.2514 94.2981 18.2741 94.4071 18.0716 94.774C17.8912 95.101 17.6035 95.5071 17.2181 95.9841C16.4481 96.9369 15.3939 98.0448 14.3077 99.1854L15.756 100.565ZM11.9794 105.031C12.0221 105.191 11.9368 105.179 12.1187 104.833C12.2715 104.542 12.5334 104.164 12.9021 103.706C13.637 102.791 14.6708 101.704 15.756 100.565L14.3077 99.1854C13.2422 100.304 12.1421 101.458 11.343 102.453C10.9447 102.949 10.5897 103.443 10.3484 103.902C10.1363 104.306 9.87977 104.921 10.0471 105.547L11.9794 105.031ZM22.5995 107.611C20.1799 107.155 17.4443 106.64 15.2738 106.088C14.1846 105.812 13.2783 105.536 12.6398 105.269C12.318 105.135 12.1043 105.018 11.9785 104.929C11.8233 104.818 11.9281 104.84 11.9794 105.031L10.0471 105.547C10.1796 106.044 10.5511 106.368 10.819 106.558C11.1164 106.77 11.4823 106.953 11.868 107.114C12.6443 107.439 13.664 107.743 14.7816 108.027C17.0251 108.597 19.8275 109.124 22.2292 109.577L22.5995 107.611ZM28.2107 108.875C27.7672 108.67 26.9421 108.473 26.0348 108.281C25.0789 108.078 23.8821 107.853 22.5995 107.611L22.2292 109.577C23.5195 109.82 24.6914 110.041 25.6205 110.237C26.5983 110.444 27.1747 110.599 27.3693 110.69L28.2107 108.875ZM29.6716 114.859C29.6789 113.69 29.6882 112.458 29.5708 111.466C29.5121 110.969 29.4155 110.47 29.2394 110.039C29.0662 109.616 28.7622 109.131 28.2107 108.875L27.3693 110.69C27.2731 110.645 27.3087 110.602 27.3884 110.797C27.4653 110.985 27.5349 111.28 27.5847 111.7C27.6842 112.543 27.6792 113.635 27.6717 114.847L29.6716 114.859ZM30.2548 119.902C30.1986 119.852 30.0952 119.718 29.9924 119.41C29.8922 119.11 29.8159 118.716 29.7635 118.233C29.6581 117.26 29.6641 116.084 29.6716 114.859L27.6717 114.847C27.6643 116.039 27.655 117.338 27.7751 118.448C27.8355 119.006 27.9323 119.555 28.0955 120.044C28.256 120.524 28.5064 121.023 28.9245 121.396L30.2548 119.902ZM46.395 117.86C42.9618 118.492 39.0492 119.213 35.8426 119.639C34.2364 119.853 32.8388 119.989 31.7818 120.007C31.2512 120.016 30.8389 119.995 30.5436 119.949C30.203 119.897 30.1797 119.835 30.2548 119.902L28.9245 121.396C29.3072 121.737 29.8312 121.863 30.2397 121.926C30.6936 121.996 31.2323 122.017 31.8164 122.007C32.989 121.986 34.4763 121.839 36.1064 121.622C39.3724 121.187 43.3379 120.457 46.7572 119.827L46.395 117.86ZM54.3106 116.619C53.6932 116.614 52.5785 116.771 51.2556 116.99C49.8966 117.216 48.2117 117.526 46.395 117.86L46.7572 119.827C48.5799 119.492 50.2451 119.185 51.5827 118.963C52.9563 118.736 53.8845 118.616 54.2923 118.619L54.3106 116.619ZM63.6552 120.499C61.752 119.543 59.8578 118.592 58.2609 117.878C57.4623 117.522 56.7197 117.216 56.0748 116.998C55.4547 116.787 54.833 116.624 54.3106 116.619L54.2923 118.619C54.4784 118.621 54.8468 118.693 55.4324 118.892C55.9934 119.082 56.6724 119.359 57.4454 119.705C58.9921 120.395 60.8418 121.324 62.7577 122.286L63.6552 120.499ZM73.4963 124.661C73.203 124.658 72.7131 124.56 72.0115 124.33C71.3303 124.106 70.5236 123.782 69.6252 123.386C67.8274 122.593 65.7344 121.543 63.6552 120.499L62.7577 122.286C64.8241 123.323 66.9653 124.399 68.8183 125.216C69.7453 125.625 70.6183 125.977 71.3868 126.23C72.135 126.476 72.8652 126.655 73.478 126.661L73.4963 124.661ZM82.344 120.465C80.5477 121.51 78.7088 122.579 77.0865 123.387C76.2762 123.79 75.5408 124.117 74.908 124.341C74.2582 124.571 73.7922 124.664 73.4963 124.661L73.478 126.661C74.1242 126.667 74.8521 126.482 75.5749 126.227C76.3147 125.965 77.1307 125.599 77.9777 125.177C79.6699 124.335 81.5687 123.23 83.3498 122.193L82.344 120.465ZM89.842 116.944C89.3595 116.939 88.8234 117.097 88.3284 117.285C87.8072 117.483 87.2172 117.759 86.5906 118.081C85.3381 118.722 83.8534 119.586 82.344 120.465L83.3498 122.193C84.8742 121.306 86.3079 120.473 87.5027 119.86C88.0997 119.555 88.6156 119.315 89.0379 119.155C89.4865 118.985 89.7317 118.943 89.8237 118.944L89.842 116.944ZM98.758 120.42C96.8225 119.536 94.957 118.684 93.435 118.052C92.6742 117.736 91.9825 117.468 91.4003 117.277C90.8515 117.097 90.2916 116.948 89.842 116.944L89.8237 118.944C89.9336 118.945 90.232 118.999 90.777 119.178C91.2887 119.346 91.9267 119.591 92.6682 119.899C94.1508 120.515 95.9807 121.35 97.927 122.239L98.758 120.42ZM110.655 125C110.275 124.996 109.655 124.876 108.795 124.614C107.957 124.359 106.966 123.993 105.874 123.553C103.689 122.673 101.166 121.52 98.758 120.42L97.927 122.239C100.324 123.334 102.891 124.507 105.126 125.408C106.244 125.859 107.296 126.248 108.213 126.527C109.108 126.8 109.956 126.994 110.637 127L110.655 125ZM117.95 120.831C116.551 121.887 115.137 122.951 113.819 123.754C112.46 124.581 111.391 125.007 110.655 125L110.637 127C111.985 127.012 113.48 126.301 114.858 125.462C116.278 124.598 117.775 123.469 119.154 122.428L117.95 120.831ZM124.288 117.258C123.777 117.253 123.261 117.413 122.794 117.614C122.315 117.821 121.807 118.108 121.292 118.434C120.266 119.085 119.109 119.958 117.95 120.831L119.154 122.428C120.333 121.54 121.42 120.721 122.363 120.124C122.833 119.826 123.242 119.599 123.587 119.45C123.944 119.296 124.162 119.257 124.27 119.258L124.288 117.258ZM130.072 118.956C128.986 118.544 127.891 118.128 126.921 117.816C125.978 117.512 125.036 117.265 124.288 117.258L124.27 119.258C124.684 119.262 125.367 119.416 126.307 119.719C127.219 120.013 128.263 120.409 129.362 120.826L130.072 118.956ZM136.605 120.709C136.518 120.747 136.286 120.792 135.833 120.747C135.401 120.704 134.867 120.59 134.246 120.416C133.001 120.067 131.544 119.515 130.072 118.956L129.362 120.826C130.81 121.375 132.357 121.963 133.705 122.342C134.38 122.531 135.04 122.678 135.636 122.737C136.21 122.794 136.842 122.783 137.39 122.549L136.605 120.709ZM137.866 115.784C137.693 117.087 137.528 118.321 137.271 119.292C137.143 119.776 137.005 120.142 136.862 120.395C136.716 120.654 136.616 120.705 136.605 120.709L137.39 122.549C137.963 122.304 138.345 121.837 138.603 121.379C138.865 120.915 139.056 120.365 139.204 119.804C139.5 118.685 139.681 117.312 139.849 116.048L137.866 115.784ZM139.836 109.952C139.378 110.228 139.085 110.665 138.889 111.067C138.687 111.48 138.537 111.962 138.416 112.455C138.177 113.438 138.018 114.641 137.866 115.784L139.849 116.048C140.005 114.871 140.151 113.786 140.36 112.929C140.464 112.502 140.573 112.175 140.686 111.944C140.805 111.701 140.882 111.657 140.866 111.666L139.836 109.952ZM149.691 111.681C147.748 111.096 145.701 110.478 144.013 110.085C143.171 109.888 142.383 109.739 141.723 109.681C141.393 109.652 141.068 109.644 140.77 109.673C140.485 109.7 140.143 109.768 139.836 109.952L140.866 111.666C140.808 111.701 140.813 111.678 140.961 111.663C141.095 111.651 141.289 111.651 141.549 111.674C142.069 111.719 142.75 111.844 143.559 112.032C145.171 112.409 147.152 113.005 149.115 113.596L149.691 111.681ZM260.313 16.5305C259.546 16.9062 258.748 17.2962 257.921 17.6993L258.798 19.497C259.625 19.0934 260.425 18.7028 261.193 18.3266L260.313 16.5305Z" fill="black"/>
<path d="M63.728 72.132C63.42 72.132 63.1633 72.0293 62.958 71.824C62.7527 71.604 62.65 71.3473 62.65 71.054V58.228C62.65 57.92 62.7527 57.6633 62.958 57.458C63.1633 57.2527 63.42 57.15 63.728 57.15C64.036 57.15 64.3 57.2527 64.52 57.458C64.74 57.6633 64.85 57.92 64.85 58.228V63.948L72.858 62.826V58.228C72.858 57.92 72.9607 57.6633 73.166 57.458C73.386 57.2527 73.65 57.15 73.958 57.15C74.2513 57.15 74.508 57.2527 74.728 57.458C74.948 57.6633 75.058 57.92 75.058 58.228V71.054C75.058 71.3327 74.948 71.582 74.728 71.802C74.508 72.022 74.2513 72.132 73.958 72.132C73.65 72.132 73.386 72.0293 73.166 71.824C72.9607 71.604 72.858 71.3473 72.858 71.054V64.982L64.85 66.104V71.054C64.85 71.3473 64.74 71.604 64.52 71.824C64.3 72.0293 64.036 72.132 63.728 72.132ZM82.0731 72.132C81.2371 72.132 80.4671 71.9047 79.7631 71.45C79.0737 70.9953 78.5311 70.3793 78.1351 69.602C77.7391 68.81 77.5411 67.952 77.5411 67.028C77.5411 65.9867 77.7757 65.0187 78.2451 64.124C78.7144 63.2147 79.3451 62.496 80.1371 61.968C80.9291 61.4253 81.7797 61.154 82.6891 61.154C83.5251 61.154 84.2877 61.3887 84.9771 61.858C85.6811 62.3273 86.2311 62.9507 86.6271 63.728C87.0377 64.5053 87.2431 65.3413 87.2431 66.236C87.2431 67.292 87.0084 68.2747 86.5391 69.184C86.0697 70.0787 85.4317 70.7973 84.6251 71.34C83.8331 71.868 82.9824 72.132 82.0731 72.132ZM82.0731 70.152C82.5864 70.152 83.0777 69.976 83.5471 69.624C84.0164 69.272 84.3904 68.8027 84.6691 68.216C84.9477 67.6293 85.0871 67.006 85.0871 66.346C85.0871 65.7887 84.9771 65.268 84.7571 64.784C84.5371 64.2853 84.2364 63.8893 83.8551 63.596C83.4737 63.288 83.0557 63.134 82.6011 63.134C82.0877 63.134 81.6037 63.3173 81.1491 63.684C80.7091 64.036 80.3571 64.5127 80.0931 65.114C79.8291 65.7007 79.6971 66.3313 79.6971 67.006C79.6971 67.666 79.8071 68.2307 80.0271 68.7C80.2617 69.1693 80.5551 69.5287 80.9071 69.778C81.2737 70.0273 81.6624 70.152 82.0731 70.152ZM93.4383 72.132C92.6023 72.132 91.8323 71.9047 91.1283 71.45C90.439 70.9953 89.8963 70.3793 89.5003 69.602C89.1043 68.81 88.9063 67.952 88.9063 67.028C88.9063 65.9867 89.141 65.0187 89.6103 64.124C90.0796 63.2147 90.7103 62.496 91.5023 61.968C92.2943 61.4253 93.145 61.154 94.0543 61.154C94.8903 61.154 95.653 61.3887 96.3423 61.858C97.0463 62.3273 97.5963 62.9507 97.9923 63.728C98.403 64.5053 98.6083 65.3413 98.6083 66.236C98.6083 67.292 98.3736 68.2747 97.9043 69.184C97.435 70.0787 96.797 70.7973 95.9903 71.34C95.1983 71.868 94.3476 72.132 93.4383 72.132ZM93.4383 70.152C93.9516 70.152 94.443 69.976 94.9123 69.624C95.3816 69.272 95.7556 68.8027 96.0343 68.216C96.313 67.6293 96.4523 67.006 96.4523 66.346C96.4523 65.7887 96.3423 65.268 96.1223 64.784C95.9023 64.2853 95.6016 63.8893 95.2203 63.596C94.839 63.288 94.421 63.134 93.9663 63.134C93.453 63.134 92.969 63.3173 92.5143 63.684C92.0743 64.036 91.7223 64.5127 91.4583 65.114C91.1943 65.7007 91.0623 66.3313 91.0623 67.006C91.0623 67.666 91.1723 68.2307 91.3923 68.7C91.627 69.1693 91.9203 69.5287 92.2723 69.778C92.639 70.0273 93.0276 70.152 93.4383 70.152ZM104.804 72.132C103.968 72.132 103.198 71.9047 102.494 71.45C101.804 70.9953 101.262 70.3793 100.866 69.602C100.47 68.81 100.272 67.952 100.272 67.028C100.272 65.9867 100.506 65.0187 100.976 64.124C101.445 63.2147 102.076 62.496 102.868 61.968C103.66 61.4253 104.51 61.154 105.42 61.154C106.256 61.154 107.018 61.3887 107.708 61.858C108.412 62.3273 108.962 62.9507 109.358 63.728C109.768 64.5053 109.974 65.3413 109.974 66.236C109.974 67.292 109.739 68.2747 109.27 69.184C108.8 70.0787 108.162 70.7973 107.356 71.34C106.564 71.868 105.713 72.132 104.804 72.132ZM104.804 70.152C105.317 70.152 105.808 69.976 106.278 69.624C106.747 69.272 107.121 68.8027 107.4 68.216C107.678 67.6293 107.818 67.006 107.818 66.346C107.818 65.7887 107.708 65.268 107.488 64.784C107.268 64.2853 106.967 63.8893 106.586 63.596C106.204 63.288 105.786 63.134 105.332 63.134C104.818 63.134 104.334 63.3173 103.88 63.684C103.44 64.036 103.088 64.5127 102.824 65.114C102.56 65.7007 102.428 66.3313 102.428 67.006C102.428 67.666 102.538 68.2307 102.758 68.7C102.992 69.1693 103.286 69.5287 103.638 69.778C104.004 70.0273 104.393 70.152 104.804 70.152ZM116.169 72.132C115.333 72.132 114.563 71.9047 113.859 71.45C113.169 70.9953 112.627 70.3793 112.231 69.602C111.835 68.81 111.637 67.952 111.637 67.028C111.637 65.9867 111.871 65.0187 112.341 64.124C112.81 63.2147 113.441 62.496 114.233 61.968C115.025 61.4253 115.875 61.154 116.785 61.154C117.621 61.154 118.383 61.3887 119.073 61.858C119.777 62.3273 120.327 62.9507 120.723 63.728C121.133 64.5053 121.339 65.3413 121.339 66.236C121.339 67.292 121.104 68.2747 120.635 69.184C120.165 70.0787 119.527 70.7973 118.721 71.34C117.929 71.868 117.078 72.132 116.169 72.132ZM116.169 70.152C116.682 70.152 117.173 69.976 117.643 69.624C118.112 69.272 118.486 68.8027 118.765 68.216C119.043 67.6293 119.183 67.006 119.183 66.346C119.183 65.7887 119.073 65.268 118.853 64.784C118.633 64.2853 118.332 63.8893 117.951 63.596C117.569 63.288 117.151 63.134 116.697 63.134C116.183 63.134 115.699 63.3173 115.245 63.684C114.805 64.036 114.453 64.5127 114.189 65.114C113.925 65.7007 113.793 66.3313 113.793 67.006C113.793 67.666 113.903 68.2307 114.123 68.7C114.357 69.1693 114.651 69.5287 115.003 69.778C115.369 70.0273 115.758 70.152 116.169 70.152ZM127.534 72.132C126.698 72.132 125.928 71.9047 125.224 71.45C124.535 70.9953 123.992 70.3793 123.596 69.602C123.2 68.81 123.002 67.952 123.002 67.028C123.002 65.9867 123.237 65.0187 123.706 64.124C124.175 63.2147 124.806 62.496 125.598 61.968C126.39 61.4253 127.241 61.154 128.15 61.154C128.986 61.154 129.749 61.3887 130.438 61.858C131.142 62.3273 131.692 62.9507 132.088 63.728C132.499 64.5053 132.704 65.3413 132.704 66.236C132.704 67.292 132.469 68.2747 132 69.184C131.531 70.0787 130.893 70.7973 130.086 71.34C129.294 71.868 128.443 72.132 127.534 72.132ZM127.534 70.152C128.047 70.152 128.539 69.976 129.008 69.624C129.477 69.272 129.851 68.8027 130.13 68.216C130.409 67.6293 130.548 67.006 130.548 66.346C130.548 65.7887 130.438 65.268 130.218 64.784C129.998 64.2853 129.697 63.8893 129.316 63.596C128.935 63.288 128.517 63.134 128.062 63.134C127.549 63.134 127.065 63.3173 126.61 63.684C126.17 64.036 125.818 64.5127 125.554 65.114C125.29 65.7007 125.158 66.3313 125.158 67.006C125.158 67.666 125.268 68.2307 125.488 68.7C125.723 69.1693 126.016 69.5287 126.368 69.778C126.735 70.0273 127.123 70.152 127.534 70.152ZM135.335 72.132C134.998 72.132 134.719 72.0147 134.499 71.78C134.294 71.5307 134.191 71.23 134.191 70.878C134.191 70.5113 134.323 70.1887 134.587 69.91C134.851 69.6167 135.152 69.47 135.489 69.47C135.812 69.47 136.083 69.5947 136.303 69.844C136.523 70.0787 136.633 70.3647 136.633 70.702C136.633 71.098 136.501 71.4353 136.237 71.714C135.973 71.9927 135.673 72.132 135.335 72.132Z" fill="black"/>
</svg>
