<svg width="260" height="128" viewBox="0 0 260 128" fill="none" xmlns="http://www.w3.org/2000/svg">
<path fill-rule="evenodd" clip-rule="evenodd" d="M149.403 15.3614C152.818 14.3325 156.045 13.3604 156.808 13.731C157.625 14.1283 157.662 16.5609 157.699 19.0051C157.736 21.4488 157.773 23.904 158.591 24.3481C159.162 24.6583 162.242 24.5269 166.103 24.3622C173.301 24.0552 183.212 23.6325 184.644 25.7379C186.018 27.7587 182.775 34.2671 180.154 39.5292C178.579 42.691 177.228 45.4028 177.237 46.4209C177.25 47.777 180.329 50.8005 183.408 53.824C186.487 56.8476 189.566 59.8711 189.579 61.2273C189.595 63.0056 186.241 66.0975 183.325 68.786C181.794 70.1979 180.383 71.4986 179.645 72.4393C177.525 75.1396 176.31 77.1927 175.682 78.9628C192.677 84.0323 236.868 98.923 258.359 109.402L177.23 96.4887C177.235 96.7504 177.237 97.0172 177.237 97.2893C175.689 98.5797 176.167 104.853 176.63 110.937C177.053 116.492 177.463 121.889 176.31 123.194C173.894 125.929 159.193 120.095 156.192 118.224C155.527 117.81 152.732 119.093 149.669 120.499C146.472 121.967 142.984 123.568 141.321 123.514C139.431 123.452 133.804 121.088 129.185 119.147C125.849 117.746 123.039 116.565 122.542 116.632C121.62 116.756 120.512 118.061 119.271 119.521C117.597 121.492 115.681 123.747 113.656 123.766C110.13 123.798 99.7387 114.67 99.7387 114.67C99.7387 114.67 88.4311 123.996 85.99 124.018C84.7847 124.029 81.9759 123.23 79.1843 122.436C76.3223 121.622 73.4783 120.813 72.3987 120.887C71.4793 120.951 69.5488 122.193 67.4539 123.542C64.6898 125.321 61.6394 127.284 60.2477 126.966C59.0245 126.686 58.9826 122.091 58.9403 117.459C58.898 112.827 58.8554 108.158 57.6309 107.731C56.4861 107.331 52.3308 108.569 47.9527 109.873C42.9646 111.359 37.6872 112.931 36.2432 112.266C34.383 111.409 34.6007 102.747 34.7476 96.9018C34.8148 94.2271 34.8672 92.1422 34.699 91.6645C34.4395 90.9281 29.9902 91.6199 25.3634 92.3392C20.4298 93.1063 15.2944 93.9047 14.8219 93.0365C14.3515 92.1722 16.5048 86.0844 18.6213 80.1007C20.6249 74.4362 22.5955 68.865 22.2757 67.9075C22.0094 67.1099 18.5327 65.565 14.4642 63.7571C8.48781 61.1015 1.23465 57.8785 1.0058 55.6238C0.775818 53.3579 7.25615 46.7496 12.557 41.3441C16.1215 37.7092 19.1527 34.6181 19.2516 33.757C19.3747 32.6851 17.1864 30.3873 15.0318 28.1249C12.8811 25.8666 10.764 23.6436 11.0132 22.7107C11.3385 21.4929 17.5929 20.3145 22.4144 19.4061C24.9871 18.9214 27.1518 18.5135 27.79 18.2175C28.7004 17.7954 28.6864 15.5285 28.6716 13.147C28.6567 10.7305 28.6411 8.19597 29.5897 7.35095C30.8198 6.25515 39.7236 7.89454 46.5761 9.15624C50.2155 9.82634 53.2763 10.3899 54.3015 10.3805C55.7186 10.3676 59.3873 8.52545 63.2065 6.60778C67.352 4.5262 71.6748 2.35566 73.4872 2.33913C75.3714 2.32194 79.2695 4.58976 82.8469 6.67106C85.8806 8.43603 88.6838 10.0669 89.8329 10.0564C90.9518 10.0462 94.4607 8.44335 98.3425 6.67019C103.147 4.47533 108.524 2.01948 110.646 2.00012C112.73 1.9811 115.773 4.27482 118.552 6.37015C120.889 8.13191 123.04 9.75342 124.279 9.74212C125.441 9.73152 127.531 8.93823 129.717 8.10882C132.637 7.00103 135.726 5.82882 136.998 6.37104C138.165 6.8689 138.517 9.51781 138.858 12.0839C139.166 14.4049 139.466 16.6582 140.351 17.1906C141.346 17.7886 145.498 16.5379 149.403 15.3614Z" fill="white"/>
<path d="M156.808 13.731L157.245 12.8316L157.245 12.8316L156.808 13.731ZM149.403 15.3614L149.691 16.3189L149.403 15.3614ZM157.699 19.0051L156.699 19.0202V19.0201L157.699 19.0051ZM158.591 24.3481L158.113 25.2269V25.2269L158.591 24.3481ZM166.103 24.3622L166.061 23.3631L166.103 24.3622ZM184.644 25.7379L183.817 26.3002H183.817L184.644 25.7379ZM180.154 39.5292L181.049 39.9751L180.154 39.5292ZM177.237 46.4209L176.237 46.43V46.43L177.237 46.4209ZM183.408 53.824L184.109 53.1105L183.408 53.824ZM189.579 61.2273L190.579 61.2181V61.2181L189.579 61.2273ZM183.325 68.786L182.648 68.0508L183.325 68.786ZM179.645 72.4393L180.431 73.0569L179.645 72.4393ZM175.682 78.9628L175.396 79.921C175.133 79.8427 174.914 79.66 174.79 79.4156C174.666 79.1712 174.648 78.8866 174.74 78.6283L175.682 78.9628ZM258.359 109.402L258.798 108.503C259.243 108.72 259.462 109.23 259.313 109.703C259.164 110.175 258.691 110.467 258.202 110.389L258.359 109.402ZM177.23 96.4887L176.23 96.5068C176.225 96.211 176.351 95.928 176.574 95.7339C176.797 95.5399 177.095 95.4546 177.387 95.5011L177.23 96.4887ZM177.237 97.2893H178.237C178.237 97.5861 178.105 97.8675 177.878 98.0575L177.237 97.2893ZM176.63 110.937L177.627 110.862L176.63 110.937ZM176.31 123.194L177.06 123.856L176.31 123.194ZM156.192 118.224L156.721 117.376L156.192 118.224ZM149.669 120.499L150.086 121.408H150.086L149.669 120.499ZM141.321 123.514L141.354 122.514H141.354L141.321 123.514ZM129.185 119.147L129.572 118.225L129.185 119.147ZM122.542 116.632L122.675 117.623L122.542 116.632ZM119.271 119.521L120.033 120.168L119.271 119.521ZM113.656 123.766L113.665 124.766L113.656 123.766ZM99.7387 114.67L99.1024 113.899C99.4809 113.587 100.03 113.595 100.399 113.919L99.7387 114.67ZM85.99 124.018L85.9991 125.018L85.99 124.018ZM79.1843 122.436L79.4579 121.474L79.1843 122.436ZM72.3987 120.887L72.4673 121.885L72.3987 120.887ZM67.4539 123.542L66.9127 122.701L67.4539 123.542ZM60.2477 126.966L60.4708 125.991L60.2477 126.966ZM58.9403 117.459L57.9403 117.468L58.9403 117.459ZM57.6309 107.731L57.3014 108.675L57.6309 107.731ZM47.9527 109.873L48.2382 110.831V110.831L47.9527 109.873ZM36.2432 112.266L36.6615 111.357L36.2432 112.266ZM34.7476 96.9018L33.7479 96.8767V96.8767L34.7476 96.9018ZM34.699 91.6645L33.7558 91.9968V91.9968L34.699 91.6645ZM25.3634 92.3392L25.517 93.3274L25.3634 92.3392ZM14.8219 93.0365L15.7002 92.5584V92.5584L14.8219 93.0365ZM18.6213 80.1007L17.6785 79.7673L18.6213 80.1007ZM22.2757 67.9075L21.3272 68.2242L22.2757 67.9075ZM14.4642 63.7571L14.8703 62.8433L14.4642 63.7571ZM1.0058 55.6238L0.0108948 55.7248V55.7248L1.0058 55.6238ZM12.557 41.3441L11.843 40.6439L12.557 41.3441ZM19.2516 33.757L20.2451 33.8711V33.8711L19.2516 33.757ZM15.0318 28.1249L15.756 27.4353V27.4353L15.0318 28.1249ZM11.0132 22.7107L10.0471 22.4526L10.0471 22.4526L11.0132 22.7107ZM22.4144 19.4061L22.5995 20.3888L22.4144 19.4061ZM27.79 18.2175L27.3693 17.3104V17.3103L27.79 18.2175ZM28.6716 13.147L27.6717 13.1532V13.1532L28.6716 13.147ZM29.5897 7.35095L30.2548 8.09765V8.09765L29.5897 7.35095ZM46.5761 9.15624L46.7572 8.17277L46.5761 9.15624ZM54.3015 10.3805L54.3106 11.3805L54.3015 10.3805ZM63.2065 6.60778L62.7577 5.71411V5.71411L63.2065 6.60778ZM73.4872 2.33913L73.478 1.33917L73.4872 2.33913ZM82.8469 6.67106L82.344 7.53542V7.53542L82.8469 6.67106ZM89.8329 10.0564L89.842 11.0563L89.8329 10.0564ZM98.3425 6.67019L98.758 7.57978L98.3425 6.67019ZM110.646 2.00012L110.655 3.00008L110.646 2.00012ZM118.552 6.37015L119.154 5.57163V5.57163L118.552 6.37015ZM124.279 9.74212L124.288 10.7421L124.279 9.74212ZM129.717 8.10882L130.072 9.04378V9.04378L129.717 8.10882ZM136.998 6.37104L136.605 7.29088L136.605 7.29088L136.998 6.37104ZM138.858 12.0839L137.866 12.2156V12.2156L138.858 12.0839ZM140.351 17.1906L140.866 16.3335L140.351 17.1906ZM156.371 14.6304C156.456 14.672 156.482 14.6562 156.37 14.6516C156.274 14.6477 156.129 14.6537 155.928 14.6777C155.524 14.7257 154.988 14.8335 154.338 14.9927C153.04 15.3104 151.408 15.8018 149.691 16.3189L149.115 14.4039C150.814 13.8921 152.502 13.383 153.862 13.0501C154.541 12.884 155.168 12.7539 155.691 12.6917C155.953 12.6606 156.212 12.6435 156.452 12.6533C156.675 12.6625 156.969 12.6974 157.245 12.8316L156.371 14.6304ZM156.699 19.0201C156.68 17.7805 156.662 16.62 156.553 15.72C156.499 15.2686 156.428 14.9402 156.349 14.7254C156.258 14.4798 156.222 14.5582 156.371 14.6304L157.245 12.8316C157.802 13.1025 158.078 13.6339 158.225 14.0325C158.384 14.462 158.477 14.969 158.539 15.4809C158.663 16.5075 158.681 17.7854 158.699 18.99L156.699 19.0201ZM158.113 25.2269C157.582 24.9382 157.316 24.4131 157.171 24.0081C157.014 23.5734 156.921 23.0624 156.859 22.5447C156.735 21.5075 156.717 20.225 156.699 19.0202L158.699 18.99C158.718 20.2288 158.736 21.3958 158.845 22.3082C158.899 22.7652 158.971 23.104 159.052 23.3309C159.145 23.5876 159.191 23.5359 159.068 23.4693L158.113 25.2269ZM166.146 25.3613C164.221 25.4434 162.468 25.5183 161.124 25.5331C160.454 25.5406 159.864 25.5334 159.396 25.5021C159.162 25.4864 158.941 25.4637 158.746 25.4294C158.572 25.3989 158.331 25.3452 158.113 25.2269L159.068 23.4693C158.993 23.4286 158.973 23.4386 159.092 23.4596C159.19 23.4768 159.333 23.4934 159.529 23.5065C159.92 23.5327 160.449 23.5405 161.102 23.5333C162.407 23.5188 164.124 23.4457 166.061 23.3631L166.146 25.3613ZM183.817 26.3002C183.786 26.2549 183.665 26.1278 183.322 25.9741C182.992 25.8262 182.538 25.6894 181.957 25.5717C180.794 25.3364 179.261 25.2037 177.502 25.1448C173.991 25.0272 169.755 25.2074 166.146 25.3613L166.061 23.3631C169.65 23.21 173.967 23.0253 177.569 23.1459C179.367 23.2062 181.03 23.3434 182.353 23.6114C183.015 23.7454 183.626 23.9186 184.141 24.1493C184.642 24.3743 185.144 24.6946 185.471 25.1757L183.817 26.3002ZM179.259 39.0833C180.576 36.4399 182.017 33.5444 182.963 31.0621C183.436 29.8191 183.766 28.7271 183.902 27.8519C184.046 26.9248 183.934 26.4731 183.817 26.3002L185.471 25.1757C186.04 26.0131 186.038 27.1328 185.879 28.1589C185.711 29.2367 185.325 30.4796 184.832 31.774C183.844 34.3667 182.354 37.3565 181.049 39.9751L179.259 39.0833ZM176.237 46.43C176.233 45.9982 176.364 45.5038 176.52 45.041C176.684 44.5513 176.915 43.9855 177.188 43.3728C177.732 42.1479 178.475 40.6574 179.259 39.0833L181.049 39.9751C180.258 41.5628 179.538 43.0091 179.015 44.185C178.754 44.7728 178.551 45.2735 178.416 45.6774C178.271 46.1081 178.237 46.3345 178.237 46.4117L176.237 46.43ZM182.707 54.5376C181.176 53.0336 179.609 51.4954 178.425 50.1608C177.833 49.4941 177.313 48.8516 176.935 48.2691C176.585 47.7305 176.243 47.0775 176.237 46.43L178.237 46.4117C178.237 46.4043 178.238 46.466 178.302 46.6182C178.363 46.7638 178.463 46.9505 178.612 47.18C178.911 47.6403 179.356 48.197 179.921 48.8336C181.049 50.1056 182.561 51.591 184.109 53.1105L182.707 54.5376ZM188.579 61.2364C188.579 61.2438 188.578 61.1821 188.514 61.0299C188.453 60.8843 188.353 60.6976 188.204 60.4681C187.905 60.0078 187.46 59.4511 186.895 58.8145C185.767 57.5425 184.255 56.0571 182.707 54.5376L184.109 53.1105C185.64 54.6145 187.208 56.1527 188.392 57.4873C188.983 58.154 189.503 58.7965 189.881 59.379C190.231 59.9176 190.573 60.5706 190.579 61.2181L188.579 61.2364ZM182.648 68.0508C184.115 66.6979 185.645 65.2858 186.809 63.9956C187.391 63.3507 187.855 62.7648 188.167 62.2569C188.494 61.7242 188.58 61.3954 188.579 61.2364L190.579 61.2181C190.585 61.9483 190.259 62.6729 189.871 63.3041C189.467 63.9601 188.913 64.6487 188.294 65.3351C187.056 66.7075 185.452 68.1857 184.003 69.5212L182.648 68.0508ZM178.858 71.8218C179.659 70.8015 181.147 69.4347 182.648 68.0508L184.003 69.5212C182.442 70.9612 181.107 72.1956 180.431 73.0569L178.858 71.8218ZM174.74 78.6283C175.42 76.7116 176.708 74.5599 178.858 71.8218L180.431 73.0569C178.341 75.7193 177.2 77.6739 176.624 79.2972L174.74 78.6283ZM175.968 78.0045C192.972 83.0768 237.228 97.9864 258.798 108.503L257.921 110.301C236.507 99.8596 192.382 84.9878 175.396 79.921L175.968 78.0045ZM258.202 110.389L177.073 97.4763L177.387 95.5011L258.517 108.414L258.202 110.389ZM176.237 97.2893C176.237 97.0232 176.235 96.7624 176.23 96.5068L178.23 96.4706C178.235 96.7384 178.237 97.0112 178.237 97.2893H176.237ZM175.633 111.013C175.402 107.984 175.163 104.849 175.179 102.309C175.188 101.04 175.259 99.8749 175.442 98.9224C175.614 98.026 175.924 97.0823 176.597 96.5212L177.878 98.0575C177.777 98.1415 177.566 98.4659 177.406 99.2988C177.257 100.076 177.187 101.101 177.179 102.322C177.163 104.762 177.394 107.806 177.627 110.862L175.633 111.013ZM175.561 122.532C175.644 122.439 175.804 122.112 175.917 121.361C176.023 120.659 176.067 119.747 176.061 118.665C176.05 116.501 175.845 113.802 175.633 111.013L177.627 110.862C177.837 113.627 178.049 116.405 178.061 118.654C178.067 119.779 178.023 120.808 177.895 121.659C177.774 122.46 177.553 123.298 177.06 123.856L175.561 122.532ZM156.721 117.376C158.115 118.245 162.447 120.141 166.767 121.481C168.918 122.149 171.005 122.659 172.677 122.84C173.515 122.931 174.204 122.934 174.723 122.854C175.259 122.772 175.482 122.621 175.561 122.532L177.06 123.856C176.534 124.451 175.769 124.717 175.027 124.831C174.268 124.948 173.388 124.929 172.461 124.829C170.604 124.627 168.375 124.075 166.174 123.392C161.789 122.031 157.27 120.074 155.663 119.073L156.721 117.376ZM149.251 119.59C150.772 118.892 152.271 118.204 153.473 117.745C154.072 117.516 154.638 117.328 155.119 117.228C155.36 117.178 155.613 117.142 155.859 117.145C156.091 117.148 156.417 117.186 156.721 117.376L155.663 119.073C155.801 119.159 155.894 119.146 155.834 119.145C155.788 119.144 155.69 119.152 155.527 119.186C155.202 119.254 154.753 119.397 154.187 119.613C153.059 120.043 151.628 120.7 150.086 121.408L149.251 119.59ZM141.354 122.514C141.622 122.523 142.039 122.463 142.616 122.307C143.179 122.154 143.834 121.927 144.556 121.645C146.003 121.081 147.646 120.327 149.251 119.59L150.086 121.408C148.495 122.139 146.795 122.919 145.283 123.509C144.526 123.804 143.797 124.059 143.139 124.237C142.494 124.412 141.852 124.531 141.288 124.513L141.354 122.514ZM129.572 118.225C131.886 119.197 134.43 120.266 136.63 121.1C137.731 121.517 138.731 121.869 139.565 122.121C140.425 122.379 141.023 122.503 141.354 122.514L141.288 124.513C140.675 124.493 139.86 124.298 138.989 124.036C138.091 123.765 137.042 123.394 135.922 122.97C133.682 122.121 131.103 121.038 128.798 120.069L129.572 118.225ZM122.409 115.641C122.66 115.607 122.909 115.657 123.047 115.687C123.221 115.725 123.418 115.781 123.625 115.847C124.041 115.98 124.567 116.175 125.163 116.408C126.359 116.875 127.909 117.527 129.572 118.225L128.798 120.069C127.125 119.367 125.602 118.727 124.435 118.271C123.85 118.042 123.371 117.866 123.016 117.753C122.838 117.696 122.708 117.66 122.62 117.641C122.496 117.613 122.548 117.64 122.675 117.623L122.409 115.641ZM118.509 118.874C119.119 118.156 119.742 117.42 120.334 116.853C120.888 116.323 121.6 115.75 122.409 115.641L122.675 117.623C122.562 117.639 122.259 117.779 121.717 118.298C121.215 118.779 120.664 119.426 120.033 120.168L118.509 118.874ZM113.647 122.766C114.298 122.76 115.054 122.385 115.942 121.619C116.813 120.866 117.66 119.873 118.509 118.874L120.033 120.168C119.208 121.14 118.259 122.26 117.248 123.133C116.253 123.992 115.039 124.753 113.665 124.766L113.647 122.766ZM99.7387 114.67C100.399 113.919 100.399 113.919 100.399 113.919C100.399 113.919 100.399 113.919 100.399 113.919C100.399 113.919 100.399 113.92 100.4 113.92C100.401 113.921 100.403 113.923 100.405 113.925C100.41 113.929 100.417 113.935 100.426 113.943C100.446 113.96 100.474 113.985 100.512 114.018C100.587 114.083 100.699 114.18 100.843 114.303C101.131 114.55 101.546 114.903 102.056 115.327C103.078 116.175 104.473 117.304 105.975 118.43C107.48 119.559 109.074 120.67 110.495 121.493C111.205 121.904 111.854 122.233 112.414 122.455C112.991 122.683 113.397 122.768 113.647 122.766L113.665 124.766C113.033 124.772 112.343 124.578 111.677 124.314C110.993 124.043 110.252 123.663 109.492 123.224C107.973 122.344 106.308 121.179 104.775 120.03C103.238 118.878 101.816 117.727 100.778 116.865C100.259 116.434 99.8355 116.074 99.5411 115.822C99.3939 115.695 99.279 115.596 99.2005 115.528C99.1613 115.494 99.1311 115.467 99.1107 115.45C99.1004 115.441 99.0926 115.434 99.0873 115.429C99.0846 115.427 99.0825 115.425 99.0811 115.424C99.0804 115.423 99.0798 115.423 99.0794 115.422C99.0792 115.422 99.0791 115.422 99.0789 115.422C99.0788 115.422 99.0787 115.422 99.7387 114.67ZM85.9809 123.018C85.98 123.018 85.9854 123.018 85.9979 123.017C86.0102 123.016 86.0278 123.013 86.0511 123.008C86.0984 122.999 86.1614 122.983 86.2414 122.957C86.4032 122.906 86.6071 122.823 86.8535 122.707C87.3468 122.473 87.952 122.129 88.6379 121.7C90.0071 120.844 91.6241 119.695 93.1822 118.534C94.7368 117.376 96.2176 116.216 97.3107 115.346C97.857 114.911 98.3057 114.548 98.6175 114.295C98.7734 114.168 98.8951 114.069 98.9775 114.001C99.0188 113.968 99.0502 113.942 99.0712 113.924C99.0817 113.916 99.0896 113.909 99.0948 113.905C99.0975 113.903 99.0994 113.901 99.1007 113.9C99.1013 113.9 99.1018 113.899 99.1021 113.899C99.1022 113.899 99.1023 113.899 99.1024 113.899C99.1024 113.899 99.1024 113.899 99.7387 114.67C100.375 115.442 100.375 115.442 100.375 115.442C100.375 115.442 100.374 115.442 100.374 115.442C100.374 115.443 100.373 115.443 100.373 115.444C100.371 115.445 100.369 115.447 100.366 115.449C100.36 115.454 100.352 115.461 100.341 115.47C100.319 115.488 100.287 115.514 100.245 115.549C100.16 115.618 100.037 115.719 99.8786 115.847C99.5625 116.104 99.1087 116.47 98.5567 116.91C97.4534 117.789 95.9547 118.962 94.3773 120.138C92.8033 121.311 91.1357 122.497 89.6982 123.396C88.9808 123.845 88.302 124.233 87.7097 124.514C87.1599 124.774 86.5423 125.013 85.9991 125.018L85.9809 123.018ZM79.4579 121.474C80.8584 121.873 82.2407 122.266 83.4224 122.559C84.6418 122.861 85.5246 123.023 85.9809 123.018L85.9991 125.018C85.25 125.025 84.1258 124.793 82.9416 124.5C81.7197 124.197 80.3018 123.794 78.9107 123.398L79.4579 121.474ZM72.3301 119.89C72.7225 119.863 73.1985 119.917 73.6783 119.997C74.1754 120.081 74.7478 120.207 75.3609 120.357C76.5863 120.657 78.0322 121.069 79.4579 121.474L78.9107 123.398C77.4744 122.99 76.0673 122.589 74.8853 122.3C74.2947 122.155 73.7748 122.042 73.3456 121.97C72.899 121.894 72.6146 121.875 72.4673 121.885L72.3301 119.89ZM66.9127 122.701C67.9526 122.031 68.9849 121.366 69.874 120.863C70.3194 120.61 70.7486 120.387 71.1401 120.219C71.5142 120.06 71.9309 119.917 72.3301 119.89L72.4673 121.885C72.4068 121.889 72.2374 121.926 71.9254 122.059C71.6309 122.185 71.2742 122.368 70.8602 122.602C70.0305 123.073 69.0501 123.703 67.9952 124.382L66.9127 122.701ZM60.4708 125.991C60.5544 126.01 60.7969 126.013 61.2687 125.862C61.7142 125.721 62.254 125.479 62.8711 125.155C64.1061 124.506 65.52 123.597 66.9127 122.701L67.9952 124.382C66.6237 125.265 65.1302 126.227 63.8011 126.926C63.1361 127.275 62.4796 127.576 61.8754 127.768C61.2975 127.952 60.6368 128.081 60.0246 127.941L60.4708 125.991ZM59.9402 117.45C59.9615 119.781 59.983 122.039 60.1466 123.749C60.229 124.61 60.3422 125.268 60.4842 125.704C60.5554 125.923 60.6174 126.033 60.6488 126.076C60.6768 126.114 60.6255 126.026 60.4708 125.991L60.0246 127.941C59.564 127.835 59.2439 127.542 59.0353 127.258C58.8301 126.978 58.6879 126.647 58.5824 126.323C58.3712 125.674 58.242 124.841 58.1557 123.939C57.982 122.124 57.9613 119.768 57.9403 117.468L59.9402 117.45ZM57.9604 106.786C58.3878 106.936 58.6779 107.24 58.869 107.526C59.0604 107.814 59.1973 108.148 59.3013 108.483C59.5091 109.153 59.6381 110.003 59.7246 110.924C59.8984 112.775 59.9193 115.148 59.9402 117.45L57.9403 117.468C57.9191 115.137 57.8975 112.86 57.7333 111.111C57.6508 110.233 57.5369 109.546 57.391 109.076C57.3181 108.841 57.2505 108.704 57.205 108.636C57.1593 108.567 57.1801 108.632 57.3014 108.675L57.9604 106.786ZM47.6672 108.915C49.8483 108.265 52.0083 107.621 53.7669 107.191C54.6456 106.977 55.4503 106.809 56.1228 106.722C56.7404 106.642 57.4289 106.601 57.9604 106.786L57.3014 108.675C57.3061 108.676 57.24 108.656 57.058 108.654C56.8872 108.653 56.6624 108.668 56.38 108.705C55.8146 108.778 55.0922 108.926 54.2417 109.134C52.5419 109.55 50.4353 110.177 48.2382 110.831L47.6672 108.915ZM36.6615 111.357C36.7543 111.4 37.1098 111.463 37.8817 111.386C38.5942 111.315 39.4967 111.146 40.5416 110.902C42.6295 110.415 45.1642 109.66 47.6672 108.915L48.2382 110.831C45.7531 111.572 43.155 112.346 40.9962 112.85C39.9177 113.101 38.9183 113.293 38.0794 113.376C37.2997 113.454 36.454 113.464 35.8249 113.174L36.6615 111.357ZM35.7473 96.9269C35.6736 99.8596 35.5841 103.445 35.7413 106.401C35.8202 107.884 35.9591 109.161 36.1779 110.099C36.2877 110.569 36.4079 110.911 36.526 111.138C36.6514 111.379 36.7184 111.384 36.6615 111.357L35.8249 113.174C35.3029 112.934 34.9698 112.48 34.7516 112.061C34.5261 111.627 34.3593 111.106 34.2302 110.553C33.9713 109.443 33.825 108.028 33.7441 106.508C33.5819 103.458 33.6747 99.7893 33.7479 96.8767L35.7473 96.9269ZM35.6421 91.3322C35.7376 91.6032 35.7684 91.9587 35.7853 92.2502C35.8047 92.5835 35.8118 92.9951 35.8116 93.4598C35.8111 94.3902 35.7808 95.5943 35.7473 96.9269L33.7479 96.8767C33.7816 95.5346 33.8111 94.3589 33.8116 93.4588C33.8118 93.0082 33.8047 92.6418 33.7887 92.3663C33.7702 92.0489 33.7445 91.9647 33.7558 91.9968L35.6421 91.3322ZM25.2098 91.3511C27.5129 90.993 29.8134 90.635 31.5703 90.4609C32.4429 90.3744 33.2294 90.3279 33.8336 90.3595C34.1297 90.3749 34.4431 90.4115 34.72 90.5008C34.9492 90.5748 35.4471 90.7787 35.6421 91.3322L33.7558 91.9968C33.8859 92.3662 34.188 92.4307 34.1062 92.4043C34.0721 92.3933 33.9592 92.3688 33.7293 92.3568C33.2818 92.3334 32.6182 92.3668 31.7676 92.4511C30.0783 92.6186 27.8407 92.9661 25.517 93.3274L25.2098 91.3511ZM15.7002 92.5584C15.5672 92.314 15.3787 92.2937 15.5008 92.331C15.5856 92.357 15.7534 92.3876 16.0309 92.4033C16.5784 92.4341 17.3581 92.3978 18.3248 92.3056C20.2485 92.1221 22.7328 91.7362 25.2098 91.3511L25.517 93.3274C23.0604 93.7093 20.5103 94.1062 18.5147 94.2966C17.5218 94.3913 16.6207 94.4397 15.9182 94.4001C15.5707 94.3805 15.2213 94.3371 14.9155 94.2435C14.647 94.1613 14.1947 93.976 13.9435 93.5145L15.7002 92.5584ZM19.5641 80.4342C18.5037 83.432 17.4433 86.4304 16.7059 88.787C16.3364 89.9677 16.0562 90.9619 15.8972 91.7021C15.8172 92.0746 15.7742 92.3541 15.7609 92.5468C15.7543 92.6429 15.7567 92.6947 15.7586 92.7129C15.7616 92.7424 15.7603 92.6688 15.7002 92.5584L13.9436 93.5145C13.8247 93.2962 13.785 93.0737 13.769 92.9161C13.7517 92.7473 13.7543 92.5739 13.7656 92.4091C13.7883 92.08 13.853 91.6954 13.9418 91.2821C14.1203 90.4508 14.4225 89.387 14.7971 88.1897C15.5479 85.7904 16.6224 82.7531 17.6785 79.7673L19.5641 80.4342ZM23.2243 67.5908C23.3379 67.931 23.3157 68.3111 23.287 68.58C23.2539 68.891 23.1858 69.2525 23.096 69.6437C22.9158 70.429 22.6272 71.4226 22.2731 72.5409C21.5639 74.7808 20.5639 77.6074 19.5641 80.4342L17.6785 79.7673C18.6823 76.9295 19.6694 74.1383 20.3664 71.9371C20.7155 70.8348 20.9848 69.902 21.1467 69.1964C21.228 68.8422 21.2771 68.5671 21.2983 68.368C21.324 68.1268 21.2935 68.1233 21.3272 68.2242L23.2243 67.5908ZM14.8703 62.8433C16.896 63.7434 18.8083 64.5929 20.2462 65.3183C20.9632 65.6801 21.5927 66.026 22.0705 66.3452C22.3087 66.5043 22.5336 66.6728 22.7193 66.8494C22.8869 67.0086 23.1129 67.2573 23.2243 67.5908L21.3272 68.2242C21.372 68.3582 21.4311 68.3842 21.3417 68.2992C21.2704 68.2315 21.1483 68.1344 20.9595 68.0082C20.5833 67.757 20.0394 67.4541 19.3453 67.104C17.9612 66.4056 16.1008 65.5786 14.0582 64.671L14.8703 62.8433ZM2.00067 55.5228C2.00418 55.5573 2.03339 55.6834 2.20456 55.9115C2.37155 56.1341 2.63193 56.3981 2.99896 56.6992C3.7336 57.3017 4.78552 57.9642 6.06046 58.6632C8.60532 60.0586 11.8709 61.5105 14.8703 62.8433L14.0582 64.671C11.0811 63.3481 7.73192 61.8606 5.09889 60.4169C3.78487 59.6964 2.60707 58.9644 1.73062 58.2456C1.29208 57.8859 0.901581 57.5074 0.604767 57.1118C0.312134 56.7218 0.0646057 56.2539 0.0108948 55.7248L2.00067 55.5228ZM13.271 42.0442C10.6142 44.7535 7.69327 47.7327 5.46431 50.3148C4.34834 51.6075 3.42963 52.7737 2.80916 53.7379C2.49867 54.2205 2.27896 54.6279 2.14536 54.9572C2.00482 55.3037 1.99594 55.4762 2.00067 55.5228L0.0108948 55.7248C-0.0418701 55.2049 0.101471 54.6753 0.292023 54.2055C0.489502 53.7186 0.779724 53.1958 1.12726 52.6557C1.82285 51.5747 2.81238 50.3261 3.95036 49.0078C6.22929 46.3679 9.19899 43.3402 11.843 40.6439L13.271 42.0442ZM20.2451 33.8711C20.2087 34.188 20.0648 34.476 19.9503 34.6768C19.8213 34.9028 19.6528 35.1465 19.4627 35.3979C19.0813 35.902 18.5576 36.5092 17.9432 37.1837C16.7123 38.5352 15.0484 40.2317 13.271 42.0442L11.843 40.6439C13.6301 38.8215 15.2641 37.155 16.4646 35.837C17.066 35.1767 17.5414 34.6225 17.8676 34.1913C18.0313 33.975 18.1436 33.8075 18.2133 33.6855C18.2973 33.5381 18.2699 33.5412 18.2582 33.6429L20.2451 33.8711ZM15.756 27.4353C16.8243 28.557 17.9416 29.7292 18.7736 30.7589C19.1892 31.2731 19.5602 31.7838 19.8228 32.2598C20.0634 32.6959 20.3134 33.2761 20.2451 33.8711L18.2582 33.6429C18.2514 33.7019 18.2741 33.5929 18.0716 33.226C17.8913 32.899 17.6035 32.4929 17.2181 32.0159C16.4481 31.0631 15.3939 29.9552 14.3077 28.8146L15.756 27.4353ZM11.9794 22.9687C12.0221 22.8088 11.9368 22.8213 12.1187 23.1674C12.2715 23.4581 12.5334 23.8356 12.9021 24.2945C13.637 25.2092 14.6708 26.2958 15.756 27.4353L14.3077 28.8146C13.2422 27.6957 12.1421 26.5417 11.343 25.5471C10.9447 25.0514 10.5897 24.5571 10.3484 24.0979C10.1362 23.6943 9.87978 23.0791 10.0471 22.4526L11.9794 22.9687ZM22.5995 20.3888C20.1799 20.8447 17.4443 21.3605 15.2738 21.9116C14.1846 22.1882 13.2783 22.4638 12.6398 22.7309C12.318 22.8655 12.1043 22.9816 11.9785 23.0711C11.8233 23.1816 11.9281 23.1605 11.9794 22.9687L10.0471 22.4526C10.1796 21.9565 10.5511 21.6321 10.819 21.4415C11.1164 21.2299 11.4823 21.0471 11.868 20.8858C12.6443 20.5611 13.664 20.2569 14.7816 19.9731C17.0251 19.4035 19.8274 18.8759 22.2292 18.4234L22.5995 20.3888ZM28.2107 19.1247C27.7672 19.3304 26.9421 19.5273 26.0348 19.7193C25.0789 19.9217 23.8821 20.1471 22.5995 20.3888L22.2292 18.4234C23.5194 18.1803 24.6914 17.9594 25.6205 17.7627C26.5983 17.5557 27.1747 17.4006 27.3693 17.3104L28.2107 19.1247ZM29.6716 13.1408C29.6789 14.3104 29.6881 15.5422 29.5708 16.5344C29.5121 17.0308 29.4155 17.5305 29.2394 17.9608C29.0662 18.3841 28.7621 18.869 28.2107 19.1247L27.3693 17.3103C27.2731 17.355 27.3087 17.3982 27.3884 17.2034C27.4653 17.0154 27.5349 16.7204 27.5847 16.2996C27.6842 15.4574 27.6792 14.3651 27.6717 13.1532L29.6716 13.1408ZM30.2548 8.09765C30.1986 8.1477 30.0952 8.28239 29.9924 8.59012C29.8922 8.89011 29.8159 9.2836 29.7635 9.76735C29.6581 10.7404 29.6641 11.9163 29.6716 13.1408L27.6717 13.1532C27.6643 11.9612 27.655 10.6616 27.7751 9.55197C27.8355 8.99441 27.9323 8.4448 28.0955 7.95638C28.256 7.47572 28.5064 6.97671 28.9245 6.60425L30.2548 8.09765ZM46.395 10.1397C42.9618 9.50758 39.0492 8.78743 35.8426 8.3608C34.2364 8.14709 32.8388 8.01147 31.7818 7.99316C31.2512 7.98397 30.8389 8.00516 30.5436 8.05055C30.203 8.1029 30.1797 8.1646 30.2548 8.09765L28.9245 6.60425C29.3072 6.26335 29.8312 6.13657 30.2397 6.07377C30.6936 6.004 31.2322 5.98334 31.8164 5.99346C32.989 6.01377 34.4763 6.16138 36.1064 6.37827C39.3724 6.81281 43.3379 7.54321 46.7572 8.17277L46.395 10.1397ZM54.3106 11.3805C53.6932 11.3861 52.5785 11.229 51.2556 11.0097C49.8966 10.7845 48.2117 10.4742 46.395 10.1397L46.7572 8.17277C48.5799 8.50838 50.2451 8.81494 51.5827 9.03665C52.9563 9.26435 53.8845 9.38431 54.2923 9.38059L54.3106 11.3805ZM63.6552 7.50144C61.752 8.45708 59.8578 9.40846 58.2609 10.1215C57.4623 10.4782 56.7197 10.7836 56.0748 11.0023C55.4547 11.2126 54.833 11.3757 54.3106 11.3805L54.2923 9.38059C54.4784 9.37889 54.8468 9.3069 55.4324 9.10826C55.9934 8.918 56.6724 8.64056 57.4454 8.29535C58.9921 7.60468 60.8418 6.67615 62.7577 5.71411L63.6552 7.50144ZM73.4963 3.33909C73.203 3.34176 72.7131 3.43964 72.0115 3.67033C71.3303 3.89431 70.5236 4.21791 69.6252 4.61406C67.8273 5.4068 65.7344 6.45742 63.6552 7.50144L62.7577 5.71411C64.8241 4.67655 66.9653 3.60112 68.8183 2.78406C69.7453 2.37531 70.6183 2.02308 71.3868 1.77039C72.135 1.5244 72.8652 1.34476 73.478 1.33917L73.4963 3.33909ZM82.344 7.53542C80.5477 6.49034 78.7088 5.42096 77.0864 4.61337C76.2762 4.21005 75.5408 3.88262 74.9081 3.65884C74.2582 3.42902 73.7923 3.33639 73.4963 3.33909L73.478 1.33917C74.1242 1.33327 74.8521 1.51767 75.5749 1.77328C76.3147 2.03491 77.1307 2.4013 77.9777 2.82295C79.6699 3.66529 81.5687 4.77048 83.3498 5.8067L82.344 7.53542ZM89.842 11.0563C89.3595 11.0607 88.8234 10.9028 88.3284 10.715C87.8072 10.5173 87.2172 10.2406 86.5906 9.91948C85.3381 9.27767 83.8534 8.41353 82.344 7.53542L83.3498 5.8067C84.8742 6.69355 86.3079 7.52732 87.5027 8.13956C88.0997 8.44549 88.6156 8.68485 89.0379 8.84508C89.4865 9.01527 89.7317 9.05727 89.8237 9.05643L89.842 11.0563ZM98.758 7.57978C96.8225 8.46389 94.957 9.31617 93.435 9.94798C92.6742 10.2638 91.9825 10.5316 91.4003 10.7225C90.8514 10.9026 90.2916 11.0522 89.842 11.0563L89.8237 9.05643C89.9336 9.05542 90.232 9.00092 90.777 8.82214C91.2887 8.65429 91.9267 8.40861 92.6682 8.10081C94.1508 7.48536 95.9807 6.64965 97.927 5.76059L98.758 7.57978ZM110.655 3.00008C110.275 3.00355 109.655 3.12421 108.795 3.38595C107.957 3.64119 106.966 4.00667 105.874 4.44684C103.689 5.32741 101.166 6.4798 98.758 7.57978L97.927 5.76059C100.324 4.66572 102.891 3.49275 105.126 2.59184C106.244 2.14127 107.296 1.75198 108.213 1.47271C109.108 1.19994 109.956 1.00637 110.637 1.00016L110.655 3.00008ZM117.95 7.16868C116.551 6.11348 115.137 5.04865 113.819 4.24648C112.46 3.41934 111.391 2.99336 110.655 3.00008L110.637 1.00016C111.985 0.987855 113.48 1.69923 114.858 2.53802C116.278 3.4018 117.775 4.53149 119.154 5.57163L117.95 7.16868ZM124.288 10.7421C123.777 10.7467 123.261 10.5875 122.794 10.3859C122.315 10.1789 121.807 9.89196 121.292 9.56565C120.266 8.91519 119.109 8.04191 117.95 7.16868L119.154 5.57163C120.333 6.46016 121.42 7.2785 122.363 7.87642C122.833 8.17429 123.242 8.40071 123.587 8.5496C123.944 8.70394 124.162 8.74315 124.27 8.74216L124.288 10.7421ZM130.072 9.04378C128.986 9.45597 127.891 9.87161 126.921 10.1843C125.978 10.4881 125.036 10.7353 124.288 10.7421L124.27 8.74216C124.684 8.73839 125.367 8.58365 126.307 8.28074C127.219 7.98679 128.263 7.59109 129.362 7.17387L130.072 9.04378ZM136.605 7.29088C136.518 7.25349 136.286 7.20819 135.833 7.25316C135.401 7.29599 134.867 7.40966 134.246 7.58398C133.001 7.93323 131.544 8.4853 130.072 9.04378L129.362 7.17387C130.81 6.62456 132.357 6.03662 133.705 5.65837C134.38 5.46894 135.04 5.32199 135.636 5.26291C136.21 5.20597 136.842 5.21748 137.39 5.45119L136.605 7.29088ZM137.866 12.2156C137.693 10.9132 137.528 9.67881 137.271 8.70764C137.143 8.22386 137.005 7.85779 136.862 7.6047C136.716 7.34596 136.616 7.29537 136.605 7.29088L137.39 5.45119C137.963 5.69564 138.345 6.16285 138.603 6.621C138.865 7.08479 139.056 7.63469 139.204 8.19612C139.5 9.3154 139.681 10.6885 139.849 11.9522L137.866 12.2156ZM139.836 18.0477C139.378 17.7721 139.085 17.3348 138.889 16.9333C138.687 16.5196 138.537 16.0379 138.416 15.5447C138.177 14.5617 138.018 13.3594 137.866 12.2156L139.849 11.9522C140.005 13.1294 140.151 14.2143 140.36 15.0713C140.464 15.4981 140.573 15.8246 140.686 16.0557C140.805 16.299 140.882 16.3429 140.866 16.3335L139.836 18.0477ZM149.691 16.3189C147.748 16.9043 145.701 17.5216 144.013 17.9153C143.171 18.1118 142.383 18.2611 141.723 18.3187C141.393 18.3476 141.068 18.356 140.77 18.3274C140.485 18.3001 140.143 18.2321 139.836 18.0477L140.866 16.3335C140.808 16.2986 140.813 16.3223 140.961 16.3365C141.095 16.3494 141.289 16.349 141.549 16.3263C142.069 16.2809 142.75 16.1561 143.559 15.9676C145.171 15.5913 147.152 14.9951 149.115 14.4039L149.691 16.3189Z" fill="black"/>
<path d="M62.578 71.132C61.4927 71.132 60.5173 70.8313 59.652 70.23C58.7867 69.614 58.1047 68.778 57.606 67.722C57.122 66.666 56.88 65.4853 56.88 64.18C56.88 62.6987 57.1807 61.342 57.782 60.11C58.3833 58.878 59.1827 57.91 60.18 57.206C61.192 56.4873 62.2773 56.128 63.436 56.128C64.5213 56.128 65.4967 56.4287 66.362 57.03C67.242 57.6313 67.924 58.46 68.408 59.516C68.9067 60.572 69.156 61.76 69.156 63.08C69.156 64.576 68.8553 65.94 68.254 67.172C67.6527 68.3893 66.846 69.3573 65.834 70.076C64.8367 70.78 63.7513 71.132 62.578 71.132ZM62.578 69.042C63.37 69.042 64.096 68.7927 64.756 68.294C65.4307 67.7953 65.966 67.0987 66.362 66.204C66.758 65.3093 66.956 64.2973 66.956 63.168C66.956 62.1413 66.78 61.254 66.428 60.506C66.0907 59.758 65.636 59.1933 65.064 58.812C64.5067 58.416 63.92 58.218 63.304 58.218C62.5413 58.218 61.8373 58.4747 61.192 58.988C60.5467 59.5013 60.0333 60.2127 59.652 61.122C59.2707 62.0167 59.08 63.036 59.08 64.18C59.08 65.2067 59.2413 66.0867 59.564 66.82C59.8867 67.5533 60.312 68.1107 60.84 68.492C61.3827 68.8587 61.962 69.042 62.578 69.042ZM77.1793 71.132C75.962 71.132 74.9133 70.7947 74.0333 70.12C73.168 69.4453 72.4933 68.4993 72.0093 67.282C71.54 66.0647 71.276 64.6567 71.2173 63.058C71.188 61.826 71.1733 60.99 71.1733 60.55L71.1953 58.856C71.21 58.4893 71.2173 57.932 71.2173 57.184C71.2173 56.9493 71.3053 56.722 71.4813 56.502C71.672 56.2673 71.9653 56.15 72.3613 56.15C72.7426 56.15 73.014 56.2673 73.1753 56.502C73.3366 56.722 73.4173 56.9567 73.4173 57.206L73.3953 58.79C73.3806 59.098 73.3733 59.5673 73.3733 60.198C73.3733 60.6673 73.388 61.518 73.4173 62.75C73.476 64.6127 73.7913 66.138 74.3633 67.326C74.95 68.514 75.9033 69.108 77.2233 69.108C78.25 69.108 79.1226 68.7853 79.8413 68.14C80.56 67.48 81 66.4387 81.1613 65.016C81.2933 63.7547 81.3593 62.3393 81.3593 60.77L81.3373 57.25C81.3373 56.986 81.418 56.7367 81.5793 56.502C81.7406 56.2673 82.0266 56.15 82.4373 56.15C82.848 56.15 83.1266 56.2673 83.2733 56.502C83.4346 56.722 83.5153 56.9567 83.5153 57.206L83.5373 57.822C83.5813 59.318 83.6033 60.3373 83.6033 60.88C83.6033 62.3907 83.5153 63.828 83.3393 65.192C83.09 67.0547 82.4666 68.514 81.4693 69.57C80.472 70.6113 79.042 71.132 77.1793 71.132ZM92.0501 71.132C90.8768 71.132 89.7988 70.868 88.8161 70.34C87.8334 69.812 87.0561 69.0493 86.4841 68.052C85.9121 67.04 85.6261 65.8593 85.6261 64.51C85.6261 63.0873 85.9561 61.7307 86.6161 60.44C87.2908 59.1347 88.1561 58.0933 89.2121 57.316C90.2828 56.524 91.3754 56.128 92.4901 56.128C92.9594 56.128 93.4214 56.2013 93.8761 56.348C94.3454 56.4947 94.7634 56.678 95.1301 56.898C95.3061 56.722 95.5261 56.634 95.7901 56.634C96.0834 56.634 96.3254 56.7367 96.5161 56.942C96.7068 57.1327 96.8021 57.3673 96.8021 57.646V59.054C96.8021 59.3473 96.6921 59.604 96.4721 59.824C96.2668 60.044 96.0101 60.154 95.7021 60.154C95.4088 60.154 95.1594 60.066 94.9541 59.89C94.7634 59.714 94.6681 59.5087 94.6681 59.274V59.12C94.1254 58.548 93.3481 58.262 92.3361 58.262C91.6028 58.262 90.8841 58.5627 90.1801 59.164C89.4761 59.7507 88.9041 60.528 88.4641 61.496C88.0388 62.464 87.8261 63.4687 87.8261 64.51C87.8261 65.434 88.0168 66.2407 88.3981 66.93C88.7794 67.6047 89.2854 68.1253 89.9161 68.492C90.5614 68.844 91.2728 69.02 92.0501 69.02C93.4728 69.02 94.6461 68.4113 95.5701 67.194C95.7021 67.0327 95.8341 66.9227 95.9661 66.864C96.0981 66.7907 96.2521 66.754 96.4281 66.754C96.7361 66.754 96.9928 66.8567 97.1981 67.062C97.4181 67.2527 97.5281 67.5167 97.5281 67.854C97.5281 68.1033 97.4621 68.3233 97.3301 68.514C96.7288 69.3647 95.9661 70.0173 95.0421 70.472C94.1328 70.912 93.1354 71.132 92.0501 71.132ZM100.687 71.132C100.379 71.132 100.122 71.0293 99.917 70.824C99.7117 70.604 99.609 70.3473 99.609 70.054V57.228C99.609 56.92 99.7117 56.6633 99.917 56.458C100.122 56.2527 100.379 56.15 100.687 56.15C100.995 56.15 101.259 56.2527 101.479 56.458C101.699 56.6633 101.809 56.92 101.809 57.228V62.948L109.817 61.826V57.228C109.817 56.92 109.92 56.6633 110.125 56.458C110.345 56.2527 110.609 56.15 110.917 56.15C111.21 56.15 111.467 56.2527 111.687 56.458C111.907 56.6633 112.017 56.92 112.017 57.228V70.054C112.017 70.3327 111.907 70.582 111.687 70.802C111.467 71.022 111.21 71.132 110.917 71.132C110.609 71.132 110.345 71.0293 110.125 70.824C109.92 70.604 109.817 70.3473 109.817 70.054V63.982L101.809 65.104V70.054C101.809 70.3473 101.699 70.604 101.479 70.824C101.259 71.0293 100.995 71.132 100.687 71.132ZM116.392 71.132C116.084 71.132 115.827 71.0293 115.622 70.824C115.417 70.604 115.314 70.3473 115.314 70.054V57.228C115.314 56.92 115.417 56.6633 115.622 56.458C115.827 56.2527 116.084 56.15 116.392 56.15C116.7 56.15 116.964 56.2527 117.184 56.458C117.404 56.6633 117.514 56.92 117.514 57.228V62.948L125.522 61.826V57.228C125.522 56.92 125.625 56.6633 125.83 56.458C126.05 56.2527 126.314 56.15 126.622 56.15C126.915 56.15 127.172 56.2527 127.392 56.458C127.612 56.6633 127.722 56.92 127.722 57.228V70.054C127.722 70.3327 127.612 70.582 127.392 70.802C127.172 71.022 126.915 71.132 126.622 71.132C126.314 71.132 126.05 71.0293 125.83 70.824C125.625 70.604 125.522 70.3473 125.522 70.054V63.982L117.514 65.104V70.054C117.514 70.3473 117.404 70.604 117.184 70.824C116.964 71.0293 116.7 71.132 116.392 71.132ZM140.181 67.436C139.888 67.436 139.631 67.3333 139.411 67.128C139.206 66.908 139.103 66.6513 139.103 66.358V57.382C139.103 57.0887 139.206 56.832 139.411 56.612C139.631 56.392 139.888 56.282 140.181 56.282C140.489 56.282 140.746 56.392 140.951 56.612C141.156 56.832 141.259 57.0887 141.259 57.382V66.358C141.259 66.6513 141.156 66.908 140.951 67.128C140.746 67.3333 140.489 67.436 140.181 67.436ZM140.005 71.132C139.668 71.132 139.389 71.0147 139.169 70.78C138.964 70.5453 138.861 70.252 138.861 69.9C138.861 69.5333 138.993 69.2033 139.257 68.91C139.521 68.6167 139.822 68.47 140.159 68.47C140.496 68.47 140.768 68.5947 140.973 68.844C141.193 69.0787 141.303 69.3647 141.303 69.702C141.303 70.098 141.171 70.4353 140.907 70.714C140.643 70.9927 140.342 71.132 140.005 71.132Z" fill="black"/>
</svg>
