<svg width="201" height="85" viewBox="0 0 201 85" fill="none" xmlns="http://www.w3.org/2000/svg">
<path d="M27.723 44.2246C23.3243 46.2722 19.0443 48.6005 15.0843 51.3896C12.4867 53.2332 9.98892 55.2842 7.94182 57.7026C0.539565 66.5954 7.69582 70.774 16.7358 71.6397C28.8567 72.6448 41.0877 69.7604 52.3364 65.3896C60.7347 61.99 72.9932 55.643 77.299 47.5155C80.8565 40.2229 72.921 37.5443 67.0171 36.9015C60.585 36.1889 54.0653 36.8505 47.7089 37.9338C47.1636 38.0188 47.0088 37.2382 47.5369 37.1056C55.6926 35.2195 69.6559 33.4763 76.7744 38.5647C81.9626 42.5307 79.4528 48.3182 75.7147 52.2757C64.81 63.7043 42.1233 71.2247 26.5137 72.8829C-0.556236 75.6788 -4.94288 60.893 18.5059 47.694C21.3701 46.092 24.3393 44.6855 27.3841 43.4542C27.9019 43.2586 28.2133 43.9899 27.7265 44.2246H27.723Z" fill="#FFB700"/>
<path d="M29.7959 61.9951C29.7718 61.9951 29.7495 61.9951 29.7254 61.9917C29.3469 61.9526 29.0717 61.6192 29.1113 61.2451C29.5843 56.6822 30.6389 53.393 31.5695 50.4934C32.5845 47.3284 33.4618 44.5937 33.3104 41.0461C33.1573 37.4508 31.9308 34.0171 29.5603 30.546C29.3469 30.2348 29.4312 29.8113 29.746 29.6022C30.0608 29.3913 30.4892 29.4746 30.7008 29.7858C33.2175 33.4712 34.5197 37.1362 34.6849 40.9899C34.8466 44.7774 33.9349 47.6175 32.8803 50.9049C31.9703 53.7434 30.9382 56.9611 30.4789 61.3846C30.4427 61.7349 30.1434 61.9951 29.7959 61.9951Z" fill="#006565"/>
<path d="M48.7342 54.0003C48.7342 54.0003 48.7239 54.0003 48.717 54.0003C48.3369 53.9918 48.0358 53.6805 48.0444 53.3047C48.1975 46.8693 45.7513 44.0819 43.7868 41.8421C43.5167 41.5342 43.2621 41.2451 43.023 40.9543C42.2196 39.9832 40.0538 36.7451 39.6754 33.4747C39.3348 30.5325 40.4357 28.4152 40.4839 28.325C40.6611 27.9917 41.0757 27.8641 41.4128 28.0376C41.7483 28.2111 41.879 28.6209 41.7036 28.9543C41.6898 28.9815 40.754 30.8182 41.043 33.3199C41.3819 36.2502 43.4066 39.2672 44.0896 40.0938C44.3166 40.3676 44.5643 40.6516 44.8275 40.9509C46.8368 43.24 49.5875 46.3744 49.4223 53.337C49.4137 53.7077 49.1075 54.002 48.7342 54.002V54.0003Z" fill="#006565"/>
<path d="M42.8544 32.9866C42.531 32.9866 42.242 32.7604 42.18 32.4339C42.1078 32.0648 42.3521 31.7077 42.7254 31.638C45.8046 31.0529 48.0324 29.1737 48.0324 28.1924C48.0324 26.7706 45.8201 25.3029 43.3911 25.1124C39.8508 24.8352 35.7205 25.8352 33.8368 26.4713C31.0242 27.4203 29.0442 28.6669 27.4547 29.6686C25.8652 30.6703 24.6077 31.4611 23.1747 31.5955C22.0118 31.7043 21.4561 31.2264 21.1964 30.8063C20.0971 29.0274 22.5657 24.939 23.3484 23.7281C23.5531 23.4118 23.978 23.3182 24.298 23.5206C24.618 23.723 24.7126 24.1431 24.5079 24.4594C23.1214 26.6073 21.9309 29.3846 22.3713 30.0971C22.4763 30.2672 22.8375 30.2604 23.0457 30.24C24.1483 30.138 25.2803 29.4237 26.715 28.5206C28.3681 27.4798 30.4238 26.1839 33.393 25.1822C35.3747 24.5138 39.7338 23.4577 43.4995 23.7553C46.3413 23.9781 49.4086 25.7366 49.4086 28.1907C49.4086 30.3216 46.0867 32.3829 42.9851 32.973C42.9421 32.9815 42.8974 32.9849 42.8544 32.9849V32.9866Z" fill="#006565"/>
<path d="M35.6499 22.444C34.7348 22.444 33.8557 22.262 33.0936 21.9049C31.8912 21.3437 31.1102 20.4202 30.8934 19.3062C30.4634 17.0902 32.495 14.8351 35.4229 14.2773C36.8042 14.0154 38.1856 14.1617 39.3158 14.6889C40.5183 15.2501 41.2993 16.1736 41.516 17.2875C41.9461 19.5035 39.9145 21.7586 36.9849 22.3148C36.5376 22.3998 36.0886 22.4423 35.6499 22.4423V22.444ZM36.7612 15.512C36.4086 15.512 36.0456 15.546 35.6826 15.6158C33.5358 16.0239 31.9617 17.5971 32.2438 19.0511C32.3746 19.728 32.8855 20.3045 33.6803 20.677C34.5473 21.0818 35.6293 21.1906 36.7251 20.9831C38.872 20.575 40.446 19.0018 40.1639 17.5477C40.0332 16.8709 39.5222 16.2943 38.7275 15.9219C38.1478 15.6515 37.4734 15.512 36.7629 15.512H36.7612Z" fill="#006565"/>
<path d="M34.069 61.7332C34.0295 61.7332 33.9916 61.7298 33.9521 61.723C33.5771 61.6584 33.3259 61.308 33.3913 60.9373C33.6269 59.5801 35.7876 47.6141 38.9339 45.4866C39.5498 45.0699 40.1037 45.0682 40.4598 45.1396C43.5786 45.7672 45.9577 51.7519 45.9577 54.0019C45.9577 54.3778 45.6498 54.6822 45.2696 54.6822C44.8894 54.6822 44.5815 54.3778 44.5815 54.0019C44.5815 51.9679 42.328 46.9032 40.1845 46.473C40.0951 46.4543 39.9472 46.4492 39.7098 46.6107C37.4493 48.1396 35.361 57.638 34.7468 61.1703C34.6901 61.5019 34.3976 61.7349 34.069 61.7349V61.7332Z" fill="#006565"/>
<path d="M47.2049 62.2178C46.4738 62.2178 45.7668 62.0376 45.1544 61.6872C44.2822 61.1889 43.7042 60.41 43.5253 59.4933C43.1641 57.6294 44.6039 55.7841 46.737 55.3794C47.7554 55.1855 48.7858 55.3454 49.6339 55.8301C50.5061 56.3284 51.0841 57.1073 51.263 58.0239C51.4419 58.9406 51.1959 59.876 50.5715 60.6583C49.9659 61.4185 49.0697 61.944 48.0496 62.1379C47.7674 62.1923 47.4836 62.2178 47.2032 62.2178H47.2049ZM47.5834 56.3199C47.3684 56.3199 47.1499 56.3403 46.9314 56.3811C45.3574 56.6804 44.2839 57.9899 44.5385 59.3012C44.6589 59.9219 45.0615 60.4559 45.6705 60.8029C46.3035 61.1634 47.0793 61.2825 47.8569 61.1345C48.6327 60.9865 49.3105 60.5937 49.7629 60.0256C50.1982 59.4797 50.3719 58.8369 50.2498 58.2161C50.1294 57.5954 49.7268 57.0613 49.1178 56.7127C48.662 56.4525 48.1339 56.3181 47.5834 56.3181V56.3199Z" fill="#FFB700"/>
<path d="M108.996 51.4942C108.996 52.1828 108.814 52.8025 108.448 53.3534C108.083 53.8767 107.661 54.2898 107.184 54.5928C106.481 54.1246 105.708 53.7252 104.865 53.3947C104.022 53.0642 103.052 52.8989 101.956 52.8989C100.523 52.8989 99.3006 53.2019 98.2889 53.8078C97.3053 54.3863 96.5464 55.2401 96.0125 56.3694C95.5066 57.4711 95.2537 58.807 95.2537 60.377C95.2537 62.8008 95.872 64.6462 97.1085 65.9132C98.3732 67.1802 100.116 67.8137 102.336 67.8137C103.488 67.8137 104.458 67.6622 105.245 67.3592C106.06 67.0562 106.832 66.7119 107.563 66.3263C108.041 66.6844 108.406 67.1389 108.659 67.6897C108.94 68.2406 109.081 68.8741 109.081 69.5902C109.081 70.2237 108.912 70.8021 108.575 71.3255C108.238 71.8488 107.661 72.2895 106.846 72.6476C106.341 72.8679 105.624 73.0883 104.697 73.3086C103.769 73.5289 102.645 73.6391 101.324 73.6391C98.7948 73.6391 96.4902 73.1709 94.4106 72.2344C92.359 71.2979 90.7149 69.8519 89.4783 67.8963C88.2699 65.9407 87.6656 63.4343 87.6656 60.377C87.6656 57.5124 88.2558 55.1024 89.4362 53.1468C90.6165 51.1637 92.2044 49.6626 94.1998 48.6434C96.2233 47.5968 98.4435 47.0735 100.86 47.0735C102.575 47.0735 104.036 47.2663 105.245 47.6519C106.453 48.0375 107.38 48.5608 108.027 49.2219C108.673 49.8829 108.996 50.6403 108.996 51.4942Z" fill="#006565"/>
<path d="M133.093 62.8559C133.093 65.0593 132.63 66.9598 131.702 68.5574C130.803 70.1549 129.524 71.3943 127.866 72.2757C126.236 73.1296 124.297 73.5565 122.049 73.5565C119.828 73.5565 117.889 73.1296 116.231 72.2757C114.573 71.4219 113.28 70.1962 112.353 68.5987C111.453 67.0012 111.004 65.0869 111.004 62.8559C111.004 60.6799 111.467 58.7932 112.395 57.1957C113.322 55.5982 114.615 54.3725 116.273 53.5186C117.931 52.6372 119.856 52.1965 122.049 52.1965C124.269 52.1965 126.194 52.6372 127.824 53.5186C129.482 54.4 130.775 55.6395 131.702 57.237C132.63 58.8345 133.093 60.7075 133.093 62.8559ZM122.049 57.6915C120.896 57.6915 119.983 58.1459 119.308 59.0549C118.662 59.9363 118.339 61.2033 118.339 62.8559C118.339 64.5636 118.662 65.8581 119.308 66.7395C119.955 67.6209 120.868 68.0616 122.049 68.0616C123.229 68.0616 124.142 67.6209 124.789 66.7395C125.435 65.8306 125.758 64.536 125.758 62.8559C125.758 61.2308 125.421 59.9638 124.747 59.0549C124.1 58.1459 123.201 57.6915 122.049 57.6915Z" fill="#006565"/>
<path d="M145.44 68.4334C145.918 68.4334 146.438 68.3921 147 68.3095C147.59 68.1993 148.026 68.0616 148.307 67.8963V64.5911L145.272 64.839C144.485 64.8941 143.838 65.0593 143.333 65.3348C142.827 65.6102 142.574 66.0234 142.574 66.5742C142.574 67.1251 142.785 67.5796 143.206 67.9376C143.656 68.2682 144.401 68.4334 145.44 68.4334ZM145.103 52.1965C148.166 52.1965 150.611 52.8163 152.438 54.0557C154.293 55.2676 155.22 57.1681 155.22 59.7572V69.0118C155.22 69.728 155.01 70.3201 154.588 70.7884C154.195 71.2291 153.717 71.6147 153.155 71.9452C152.256 72.4685 151.159 72.8679 149.867 73.1433C148.574 73.4188 147.098 73.5565 145.44 73.5565C142.489 73.5565 140.115 73.0056 138.316 71.9039C136.546 70.7746 135.66 69.0807 135.66 66.8221C135.66 64.9216 136.236 63.4618 137.389 62.4427C138.569 61.4236 140.354 60.7901 142.742 60.5422L148.265 59.9638V59.6746C148.265 58.8758 147.899 58.3112 147.169 57.9807C146.466 57.6226 145.44 57.4436 144.091 57.4436C143.052 57.4436 142.012 57.5537 140.972 57.7741C139.96 57.9944 139.047 58.2699 138.232 58.6004C137.866 58.3525 137.557 57.9807 137.304 57.4849C137.051 56.9616 136.925 56.4245 136.925 55.8736C136.925 54.5515 137.642 53.615 139.075 53.0642C139.89 52.7612 140.845 52.5408 141.941 52.4031C143.066 52.2654 144.119 52.1965 145.103 52.1965Z" fill="#006565"/>
<path d="M171.153 57.7328C169.748 57.7328 168.525 58.1735 167.485 59.0549C166.474 59.9363 165.968 61.2308 165.968 62.9385C165.968 64.6462 166.46 65.9132 167.443 66.7395C168.427 67.5658 169.649 67.9789 171.111 67.9789C171.954 67.9789 172.699 67.8825 173.345 67.6897C174.02 67.4694 174.582 67.249 175.031 67.0287C175.565 67.4143 175.959 67.8275 176.212 68.2682C176.493 68.7088 176.633 69.2459 176.633 69.8794C176.633 70.9812 176.071 71.8626 174.947 72.5236C173.851 73.1847 172.277 73.5152 170.226 73.5152C167.893 73.5152 165.855 73.1158 164.113 72.317C162.399 71.5183 161.064 70.3339 160.108 68.7639C159.181 67.1664 158.717 65.2246 158.717 62.9385C158.717 60.5147 159.237 58.5178 160.277 56.9478C161.317 55.3503 162.694 54.1659 164.408 53.3947C166.122 52.5959 167.991 52.1965 170.015 52.1965C172.01 52.1965 173.556 52.5546 174.652 53.2707C175.776 53.9869 176.338 54.9096 176.338 56.0389C176.338 56.5622 176.212 57.058 175.959 57.5262C175.706 57.9669 175.411 58.3525 175.073 58.683C174.596 58.4627 174.02 58.2561 173.345 58.0633C172.671 57.843 171.94 57.7328 171.153 57.7328Z" fill="#006565"/>
<path d="M200.462 64.4258H193.296V60.7488C193.296 59.6195 193.001 58.8345 192.41 58.3938C191.848 57.9256 191.146 57.6915 190.303 57.6915C189.459 57.6915 188.715 57.843 188.068 58.1459C187.422 58.4489 186.86 58.7794 186.382 59.1375V53.4773C187.028 53.1468 187.801 52.8576 188.701 52.6097C189.6 52.3343 190.584 52.1965 191.652 52.1965C194.406 52.1965 196.556 52.8851 198.101 54.2623C199.675 55.6119 200.462 57.6364 200.462 60.3356V64.4258ZM180.312 61.9882H187.478V72.8541C187.169 72.9368 186.719 73.0194 186.129 73.102C185.567 73.1847 184.949 73.226 184.274 73.226C182.897 73.226 181.885 72.9919 181.239 72.5236C180.621 72.0554 180.312 71.1878 180.312 69.9208V61.9882ZM193.296 61.9882H200.462V72.8541C200.153 72.9368 199.703 73.0194 199.113 73.102C198.551 73.1847 197.933 73.226 197.258 73.226C195.881 73.226 194.869 72.9919 194.223 72.5236C193.605 72.0554 193.296 71.1878 193.296 69.9208V61.9882ZM187.478 65.6653H180.312V45.958C180.621 45.8753 181.056 45.7927 181.618 45.7101C182.209 45.6274 182.841 45.5861 183.516 45.5861C184.921 45.5861 185.932 45.8202 186.551 46.2885C187.169 46.7292 187.478 47.5968 187.478 48.8913V65.6653Z" fill="#006565"/>
<path d="M109.73 41.4951V15.3123H111.601V41.4951H109.73ZM91.8514 41.4951V15.3123H93.7216V41.4951H91.8514ZM92.9361 29.3762V27.506H110.404V29.3762H92.9361Z" fill="black"/>
<path d="M126.493 41.8691C124.623 41.8691 122.952 41.4452 121.481 40.5974C120.034 39.7495 118.9 38.5651 118.077 37.044C117.254 35.5229 116.843 33.7524 116.843 31.7326C116.843 30.2614 117.067 28.9148 117.516 27.693C117.99 26.4711 118.638 25.4113 119.461 24.5136C120.284 23.591 121.269 22.8803 122.416 22.3816C123.588 21.8829 124.859 21.6335 126.231 21.6335C127.577 21.6335 128.787 21.858 129.859 22.3068C130.956 22.7557 131.879 23.404 132.627 24.2518C133.375 25.0747 133.936 26.0597 134.31 27.2067C134.684 28.3289 134.846 29.5757 134.796 30.9471L134.759 31.957H118.226V30.2365H133.749L132.926 30.9097V30.012C132.926 29.0146 132.677 28.0172 132.178 27.0197C131.704 26.0223 130.969 25.1869 129.971 24.5136C128.974 23.8404 127.715 23.5037 126.194 23.5037C124.772 23.5037 123.5 23.8154 122.378 24.4388C121.281 25.0622 120.408 25.9724 119.76 27.1693C119.137 28.3663 118.825 29.85 118.825 31.6204C118.825 33.3161 119.137 34.7997 119.76 36.0715C120.383 37.3183 121.281 38.2908 122.453 38.989C123.65 39.6623 125.109 39.9989 126.829 39.9989C127.752 39.9989 128.7 39.8493 129.672 39.5501C130.645 39.2508 131.742 38.6025 132.964 37.605L133.936 38.989C133.388 39.5127 132.739 39.9989 131.991 40.4478C131.243 40.8717 130.408 41.2208 129.485 41.4951C128.562 41.7444 127.565 41.8691 126.493 41.8691Z" fill="black"/>
<path d="M138.651 41.4951V13.8161H140.521V41.4951H138.651Z" fill="black"/>
<path d="M146.139 41.4951V13.8161H148.009V41.4951H146.139Z" fill="black"/>
<path d="M161.677 41.8691C159.732 41.8691 157.999 41.4327 156.478 40.56C154.982 39.6872 153.798 38.4778 152.925 36.9318C152.077 35.3857 151.653 33.6278 151.653 31.6578C151.653 29.7128 152.077 27.9922 152.925 26.4961C153.798 24.975 154.982 23.7905 156.478 22.9427C157.999 22.0699 159.732 21.6335 161.677 21.6335C163.622 21.6335 165.343 22.0699 166.839 22.9427C168.36 23.7905 169.545 24.975 170.392 26.4961C171.24 27.9922 171.664 29.7128 171.664 31.6578C171.664 33.6278 171.24 35.3857 170.392 36.9318C169.545 38.4778 168.36 39.6872 166.839 40.56C165.343 41.4327 163.622 41.8691 161.677 41.8691ZM161.677 39.9989C163.223 39.9989 164.595 39.6373 165.792 38.9142C167.014 38.191 167.961 37.2061 168.634 35.9593C169.333 34.7125 169.682 33.2787 169.682 31.6578C169.682 30.0868 169.333 28.6904 168.634 27.4686C167.961 26.2218 167.014 25.2493 165.792 24.551C164.595 23.8528 163.223 23.5037 161.677 23.5037C160.106 23.5037 158.71 23.8528 157.488 24.551C156.291 25.2493 155.344 26.2218 154.645 27.4686C153.972 28.6904 153.635 30.0868 153.635 31.6578C153.635 33.2787 153.972 34.7125 154.645 35.9593C155.344 37.2061 156.291 38.191 157.488 38.9142C158.71 39.6373 160.106 39.9989 161.677 39.9989Z" fill="black"/>
</svg>
