<svg width="195" height="83" viewBox="0 0 195 83" fill="none" xmlns="http://www.w3.org/2000/svg">
<path d="M26.9676 43.0196C22.6888 45.0114 18.5254 47.2762 14.6733 49.9894C12.1465 51.7827 9.71674 53.7778 7.72542 56.1303C0.524856 64.7809 7.48612 68.8456 16.2797 69.6877C28.0704 70.6654 39.9681 67.8596 50.9104 63.6079C59.0798 60.3009 71.0043 54.1269 75.1928 46.2208C78.6534 39.1269 70.9341 36.5213 65.191 35.896C58.9342 35.2028 52.5921 35.8464 46.409 36.9002C45.8785 36.9829 45.7279 36.2236 46.2416 36.0945C54.1751 34.2598 67.758 32.5641 74.6824 37.5139C79.7294 41.3719 77.2879 47.0016 73.6516 50.8513C63.0441 61.9685 40.9755 69.284 25.7912 70.897C-0.541087 73.6167 -4.80821 59.2339 18.0017 46.3945C20.7878 44.8361 23.6761 43.4679 26.638 42.2702C27.1417 42.0799 27.4446 42.7913 26.971 43.0196H26.9676Z" fill="#F9FAFB"/>
<path d="M28.9841 60.3059C28.9606 60.3059 28.9389 60.3059 28.9154 60.3026C28.5473 60.2645 28.2796 59.9403 28.318 59.5763C28.7782 55.1377 29.804 51.9382 30.7093 49.1176C31.6966 46.0388 32.55 43.3786 32.4028 39.9277C32.2538 36.4304 31.0607 33.0903 28.7548 29.7137C28.5473 29.411 28.6293 28.9991 28.9355 28.7956C29.2417 28.5904 29.6584 28.6715 29.8642 28.9742C32.3124 32.5592 33.5792 36.1243 33.7398 39.8731C33.8971 43.5573 33.0102 46.3201 31.9844 49.5179C31.0992 52.279 30.0952 55.409 29.6484 59.712C29.6132 60.0528 29.3221 60.3059 28.9841 60.3059Z" fill="#FFB700"/>
<path d="M47.4063 52.5289C47.4063 52.5289 47.3963 52.5289 47.3896 52.5289C47.0198 52.5206 46.727 52.2179 46.7353 51.8523C46.8842 45.5922 44.5047 42.8807 42.5937 40.702C42.331 40.4025 42.0833 40.1213 41.8507 39.8384C41.0692 38.8938 38.9625 35.7439 38.5943 32.5626C38.263 29.7006 39.3339 27.6409 39.3808 27.5532C39.5532 27.229 39.9565 27.1049 40.2844 27.2736C40.6107 27.4424 40.7379 27.8411 40.5672 28.1653C40.5538 28.1918 39.6435 29.9785 39.9247 32.412C40.2543 35.2625 42.2239 38.1973 42.8882 39.0013C43.1091 39.2677 43.3501 39.5439 43.6061 39.8351C45.5606 42.0618 48.2363 45.1108 48.0757 51.8837C48.0673 52.2443 47.7695 52.5305 47.4063 52.5305V52.5289Z" fill="#FFB700"/>
<path d="M41.6867 32.0878C41.3721 32.0878 41.091 31.8678 41.0307 31.5501C40.9604 31.1912 41.1981 30.8437 41.5612 30.7759C44.5565 30.2068 46.7236 28.3788 46.7236 27.4242C46.7236 26.0412 44.5716 24.6135 42.2088 24.4282C38.765 24.1585 34.7472 25.1313 32.9148 25.75C30.1789 26.6731 28.2528 27.8858 26.7066 28.8602C25.1604 29.8346 23.9371 30.6039 22.5432 30.7345C21.412 30.8404 20.8715 30.3756 20.6188 29.9669C19.5495 28.2365 21.9508 24.2594 22.7122 23.0815C22.9114 22.7738 23.3247 22.6828 23.6359 22.8797C23.9472 23.0766 24.0392 23.4852 23.8401 23.7929C22.4913 25.8824 21.3334 28.5839 21.7617 29.2771C21.8638 29.4425 22.2152 29.4359 22.4177 29.416C23.4903 29.3168 24.5914 28.6219 25.987 27.7435C27.5952 26.731 29.5948 25.4704 32.4831 24.496C34.4108 23.8459 38.6512 22.8185 42.3142 23.108C45.0786 23.3247 48.0623 25.0353 48.0623 27.4225C48.0623 29.4954 44.831 31.5005 41.8139 32.0746C41.772 32.0828 41.7285 32.0862 41.6867 32.0862V32.0878Z" fill="#FFB700"/>
<path d="M34.6786 21.8325C33.7884 21.8325 32.9333 21.6555 32.192 21.308C31.0223 20.7621 30.2625 19.8638 30.0517 18.7802C29.6333 16.6246 31.6096 14.4309 34.4577 13.8883C35.8014 13.6335 37.1452 13.7758 38.2446 14.2886C39.4143 14.8346 40.174 15.7329 40.3848 16.8165C40.8032 18.9721 38.8269 21.1658 35.9771 21.7067C35.5421 21.7895 35.1053 21.8308 34.6786 21.8308V21.8325ZM35.7596 15.0894C35.4166 15.0894 35.0635 15.1224 34.7104 15.1903C32.622 15.5873 31.0909 17.1176 31.3653 18.532C31.4925 19.1905 31.9895 19.7513 32.7626 20.1136C33.606 20.5073 34.6585 20.6132 35.7245 20.4114C37.8128 20.0143 39.344 18.4841 39.0696 17.0696C38.9424 16.4112 38.4454 15.8504 37.6723 15.4881C37.1083 15.225 36.4524 15.0894 35.7613 15.0894H35.7596Z" fill="#FFB700"/>
<path d="M33.1408 60.0511C33.1023 60.0511 33.0655 60.0478 33.027 60.0412C32.6622 59.9784 32.4179 59.6376 32.4815 59.2769C32.7107 57.9567 34.8125 46.3168 37.8731 44.2472C38.4722 43.8419 39.011 43.8402 39.3574 43.9097C42.3912 44.5202 44.7055 50.3418 44.7055 52.5305C44.7055 52.8961 44.406 53.1922 44.0362 53.1922C43.6664 53.1922 43.3668 52.8961 43.3668 52.5305C43.3668 50.5519 41.1747 45.6253 39.0897 45.2067C39.0026 45.1885 38.8587 45.1835 38.6278 45.3407C36.429 46.828 34.3975 56.0675 33.8001 59.5036C33.7449 59.8262 33.4604 60.0528 33.1408 60.0528V60.0511Z" fill="#FFB700"/>
<path d="M45.9187 60.5226C45.2075 60.5226 44.5197 60.3472 43.924 60.0064C43.0756 59.5217 42.5133 58.764 42.3393 57.8723C41.9879 56.0591 43.3885 54.2642 45.4635 53.8704C46.4542 53.6818 47.4565 53.8374 48.2815 54.3088C49.1299 54.7936 49.6922 55.5513 49.8662 56.4429C50.0402 57.3346 49.8009 58.2445 49.1935 59.0055C48.6045 59.745 47.7326 60.2562 46.7403 60.4448C46.4659 60.4977 46.1898 60.5226 45.917 60.5226H45.9187ZM46.2868 54.7853C46.0776 54.7853 45.8651 54.8051 45.6526 54.8448C44.1215 55.136 43.0773 56.4099 43.3249 57.6854C43.4421 58.2892 43.8336 58.8087 44.426 59.1461C45.0418 59.4969 45.7965 59.6127 46.5529 59.4687C47.3076 59.3248 47.9669 58.9427 48.407 58.3901C48.8304 57.8591 48.9994 57.2337 48.8806 56.6299C48.7634 56.0261 48.3719 55.5066 47.7795 55.1674C47.336 54.9143 46.8223 54.7836 46.2868 54.7836V54.7853Z" fill="#F9FAFB"/>
<path d="M106.027 50.0911C106.027 50.7609 105.849 51.3638 105.493 51.8996C105.138 52.4087 104.728 52.8106 104.263 53.1053C103.58 52.6498 102.828 52.2613 102.008 51.9398C101.188 51.6183 100.245 51.4576 99.1784 51.4576C97.7841 51.4576 96.5949 51.7523 95.6108 52.3417C94.6539 52.9044 93.9158 53.735 93.3964 54.8335C92.9043 55.9052 92.6582 57.2046 92.6582 58.7318C92.6582 61.0896 93.2597 62.8848 94.4626 64.1172C95.6928 65.3497 97.3877 65.9659 99.5474 65.9659C100.668 65.9659 101.611 65.8186 102.377 65.5239C103.17 65.2291 103.922 64.8942 104.632 64.5191C105.097 64.8674 105.452 65.3095 105.698 65.8454C105.972 66.3812 106.109 66.9975 106.109 67.6941C106.109 68.3103 105.945 68.873 105.616 69.382C105.288 69.8911 104.728 70.3198 103.935 70.6681C103.443 70.8825 102.746 71.0968 101.844 71.3111C100.942 71.5255 99.8482 71.6327 98.5633 71.6327C96.1028 71.6327 93.8611 71.1772 91.8381 70.2662C89.8424 69.3553 88.2432 67.9486 87.0403 66.0463C85.8647 64.144 85.277 61.7059 85.277 58.7318C85.277 55.9454 85.8511 53.601 86.9993 51.6987C88.1475 49.7696 89.6921 48.3094 91.6331 47.318C93.6014 46.2999 95.7611 45.7908 98.1122 45.7908C99.7798 45.7908 101.201 45.9784 102.377 46.3535C103.552 46.7286 104.455 47.2377 105.083 47.8807C105.712 48.5237 106.027 49.2605 106.027 50.0911Z" fill="#FFB700"/>
<path d="M129.467 61.1432C129.467 63.2866 129.016 65.1354 128.114 66.6894C127.239 68.2433 125.995 69.449 124.382 70.3064C122.796 71.137 120.91 71.5523 118.723 71.5523C116.563 71.5523 114.677 71.137 113.064 70.3064C111.451 69.4758 110.194 68.2835 109.291 66.7295C108.417 65.1756 107.979 63.3134 107.979 61.1432C107.979 59.0266 108.43 57.1912 109.332 55.6373C110.235 54.0833 111.492 52.891 113.105 52.0604C114.718 51.203 116.591 50.7743 118.723 50.7743C120.883 50.7743 122.755 51.203 124.341 52.0604C125.954 52.9178 127.211 54.1235 128.114 55.6774C129.016 57.2314 129.467 59.0534 129.467 61.1432ZM118.723 56.1195C117.602 56.1195 116.714 56.5616 116.058 57.4458C115.429 58.3032 115.114 59.5356 115.114 61.1432C115.114 62.8044 115.429 64.0636 116.058 64.921C116.686 65.7784 117.575 66.2071 118.723 66.2071C119.871 66.2071 120.76 65.7784 121.388 64.921C122.017 64.0368 122.332 62.7776 122.332 61.1432C122.332 59.5624 122.004 58.3299 121.347 57.4458C120.719 56.5616 119.844 56.1195 118.723 56.1195Z" fill="#FFB700"/>
<path d="M141.477 66.5688C141.942 66.5688 142.448 66.5286 142.995 66.4482C143.569 66.341 143.993 66.2071 144.266 66.0463V62.8312L141.313 63.0723C140.548 63.1259 139.919 63.2866 139.427 63.5546C138.935 63.8225 138.689 64.2244 138.689 64.7603C138.689 65.2961 138.894 65.7382 139.304 66.0865C139.742 66.408 140.466 66.5688 141.477 66.5688ZM141.149 50.7743C144.129 50.7743 146.508 51.3772 148.285 52.5829C150.089 53.7617 150.991 55.6105 150.991 58.129V67.1314C150.991 67.8281 150.786 68.4041 150.376 68.8596C149.993 69.2883 149.529 69.6634 148.982 69.9849C148.107 70.494 147.041 70.8825 145.783 71.1504C144.526 71.4183 143.09 71.5523 141.477 71.5523C138.607 71.5523 136.297 71.0164 134.547 69.9447C132.825 68.8462 131.964 67.1984 131.964 65.0014C131.964 63.1527 132.524 61.7327 133.645 60.7413C134.793 59.75 136.529 59.1337 138.853 58.8926L144.225 58.3299V58.0486C144.225 57.2716 143.87 56.7224 143.159 56.4009C142.475 56.0525 141.477 55.8784 140.165 55.8784C139.154 55.8784 138.142 55.9856 137.131 56.1999C136.147 56.4143 135.258 56.6822 134.465 57.0037C134.11 56.7626 133.809 56.4009 133.563 55.9186C133.317 55.4095 133.194 54.8871 133.194 54.3512C133.194 53.0651 133.891 52.1542 135.285 51.6183C136.078 51.3236 137.008 51.1092 138.074 50.9753C139.167 50.8413 140.193 50.7743 141.149 50.7743Z" fill="#FFB700"/>
<path d="M166.49 56.1597C165.123 56.1597 163.933 56.5884 162.922 57.4458C161.938 58.3032 161.446 59.5624 161.446 61.2236C161.446 62.8848 161.924 64.1172 162.881 64.921C163.838 65.7248 165.027 66.1267 166.449 66.1267C167.269 66.1267 167.993 66.0329 168.622 65.8454C169.278 65.631 169.825 65.4167 170.262 65.2023C170.782 65.5774 171.164 65.9793 171.41 66.408C171.684 66.8367 171.82 67.3592 171.82 67.9754C171.82 69.0471 171.274 69.9045 170.18 70.5475C169.114 71.1906 167.583 71.5121 165.587 71.5121C163.318 71.5121 161.336 71.1236 159.641 70.3466C157.974 69.5696 156.675 68.4175 155.746 66.8903C154.844 65.3363 154.392 63.4474 154.392 61.2236C154.392 58.8658 154.898 56.9233 155.91 55.3961C156.921 53.8421 158.261 52.69 159.928 51.9398C161.596 51.1628 163.414 50.7743 165.382 50.7743C167.323 50.7743 168.827 51.1226 169.893 51.8193C170.987 52.5159 171.533 53.4134 171.533 54.512C171.533 55.021 171.41 55.5033 171.164 55.9588C170.918 56.3875 170.631 56.7626 170.303 57.0841C169.838 56.8697 169.278 56.6688 168.622 56.4812C167.966 56.2669 167.255 56.1597 166.49 56.1597Z" fill="#FFB700"/>
<path d="M195 62.6704H188.029V59.0935C188.029 57.995 187.742 57.2314 187.168 56.8028C186.621 56.3473 185.937 56.1195 185.117 56.1195C184.297 56.1195 183.573 56.2669 182.944 56.5616C182.315 56.8563 181.768 57.1779 181.304 57.5262V52.0202C181.932 51.6987 182.684 51.4174 183.559 51.1762C184.434 50.9083 185.391 50.7743 186.43 50.7743C189.109 50.7743 191.2 51.4442 192.704 52.7838C194.235 54.0967 195 56.0659 195 58.6917V62.6704ZM175.399 60.2992H182.37V70.8691C182.069 70.9494 181.632 71.0298 181.058 71.1102C180.511 71.1906 179.909 71.2308 179.253 71.2308C177.914 71.2308 176.93 71.003 176.301 70.5475C175.699 70.0921 175.399 69.2481 175.399 68.0156V60.2992ZM188.029 60.2992H195V70.8691C194.699 70.9494 194.262 71.0298 193.688 71.1102C193.141 71.1906 192.54 71.2308 191.883 71.2308C190.544 71.2308 189.56 71.003 188.931 70.5475C188.33 70.0921 188.029 69.2481 188.029 68.0156V60.2992ZM182.37 63.8761H175.399V44.7057C175.699 44.6254 176.123 44.545 176.67 44.4646C177.244 44.3842 177.859 44.344 178.515 44.344C179.882 44.344 180.866 44.5718 181.468 45.0272C182.069 45.4559 182.37 46.2999 182.37 47.5592V63.8761Z" fill="#FFB700"/>
<path d="M106.741 40.3644V14.895H108.56V40.3644H106.741ZM89.3486 40.3644V14.895H91.1679V40.3644H89.3486ZM90.4038 28.5757V26.7565H107.396V28.5757H90.4038Z" fill="#F9FAFB"/>
<path d="M123.046 40.7283C121.227 40.7283 119.602 40.3159 118.171 39.4912C116.764 38.6665 115.66 37.5143 114.86 36.0346C114.059 34.555 113.659 32.8328 113.659 30.868C113.659 29.4368 113.877 28.127 114.314 26.9384C114.775 25.7498 115.405 24.7189 116.206 23.8457C117.006 22.9482 117.964 22.2569 119.08 21.7718C120.22 21.2866 121.457 21.0441 122.791 21.0441C124.101 21.0441 125.278 21.2624 126.321 21.699C127.388 22.1356 128.286 22.7663 129.013 23.591C129.741 24.3915 130.287 25.3496 130.651 26.4654C131.014 27.557 131.172 28.7698 131.124 30.1039L131.087 31.0863H115.005V29.4126H130.105L129.304 30.0675V29.1943C129.304 28.224 129.062 27.2537 128.577 26.2835C128.116 25.3132 127.4 24.5006 126.43 23.8457C125.46 23.1908 124.235 22.8633 122.755 22.8633C121.372 22.8633 120.135 23.1665 119.044 23.7729C117.976 24.3793 117.128 25.2647 116.497 26.429C115.89 27.5933 115.587 29.0366 115.587 30.7588C115.587 32.4083 115.89 33.8515 116.497 35.0886C117.103 36.3014 117.976 37.2474 119.117 37.9266C120.281 38.5816 121.7 38.909 123.374 38.909C124.271 38.909 125.193 38.7635 126.139 38.4724C127.085 38.1813 128.152 37.5507 129.341 36.5804L130.287 37.9266C129.753 38.436 129.122 38.909 128.395 39.3456C127.667 39.758 126.854 40.0976 125.957 40.3644C125.059 40.607 124.089 40.7283 123.046 40.7283Z" fill="#F9FAFB"/>
<path d="M134.873 40.3644V13.4396H136.692V40.3644H134.873Z" fill="#F9FAFB"/>
<path d="M142.157 40.3644V13.4396H143.976V40.3644H142.157Z" fill="#F9FAFB"/>
<path d="M157.272 40.7283C155.38 40.7283 153.694 40.3038 152.215 39.4548C150.759 38.6058 149.607 37.4294 148.758 35.9255C147.933 34.4216 147.521 32.7115 147.521 30.7952C147.521 28.9032 147.933 27.2295 148.758 25.7741C149.607 24.2944 150.759 23.1423 152.215 22.3175C153.694 21.4686 155.38 21.0441 157.272 21.0441C159.164 21.0441 160.838 21.4686 162.293 22.3175C163.773 23.1423 164.925 24.2944 165.75 25.7741C166.574 27.2295 166.987 28.9032 166.987 30.7952C166.987 32.7115 166.574 34.4216 165.75 35.9255C164.925 37.4294 163.773 38.6058 162.293 39.4548C160.838 40.3038 159.164 40.7283 157.272 40.7283ZM157.272 38.909C158.776 38.909 160.11 38.5573 161.274 37.8539C162.463 37.1504 163.385 36.1923 164.04 34.9795C164.719 33.7666 165.058 32.3719 165.058 30.7952C165.058 29.267 164.719 27.9087 164.04 26.7201C163.385 25.5073 162.463 24.5613 161.274 23.8821C160.11 23.2029 158.776 22.8633 157.272 22.8633C155.744 22.8633 154.385 23.2029 153.197 23.8821C152.033 24.5613 151.111 25.5073 150.432 26.7201C149.777 27.9087 149.449 29.267 149.449 30.7952C149.449 32.3719 149.777 33.7666 150.432 34.9795C151.111 36.1923 152.033 37.1504 153.197 37.8539C154.385 38.5573 155.744 38.909 157.272 38.909Z" fill="#F9FAFB"/>
</svg>
