<svg width="206" height="62" viewBox="0 0 206 62" fill="none" xmlns="http://www.w3.org/2000/svg">
<path d="M25.5349 31.5151C20.9394 33.6372 16.468 36.0502 12.3309 38.9408C9.61709 40.8514 7.00756 42.9771 4.8689 45.4835C-2.86444 54.7 4.6119 59.0306 14.0562 59.9278C26.7192 60.9694 39.4973 57.9801 51.2491 53.4503C60.023 49.9269 72.8299 43.349 77.3282 34.9257C81.0448 27.3677 72.7544 24.5917 66.5864 23.9254C59.8667 23.1869 53.0553 23.8726 46.4147 24.9953C45.845 25.0835 45.6832 24.2744 46.235 24.1369C54.7555 22.1823 69.3433 20.3756 76.7801 25.6492C82.2005 29.7596 79.5783 35.7576 75.673 39.8591C64.2806 51.7036 40.5792 59.4977 24.2714 61.2162C-4.00925 64.1139 -8.5921 48.7901 15.9055 35.1107C18.8978 33.4504 21.9998 31.9927 25.1808 30.7166C25.7218 30.5139 26.0471 31.2718 25.5385 31.5151H25.5349Z" fill="#FFB700"/>
<path d="M27.7005 49.9322C27.6753 49.9322 27.6519 49.9322 27.6268 49.9287C27.2314 49.8882 26.9438 49.5427 26.9852 49.1549C27.4794 44.426 28.5811 41.0171 29.5534 38.012C30.6137 34.7318 31.5303 31.8976 31.3721 28.2209C31.2122 24.4948 29.9308 20.9361 27.4543 17.3387C27.2314 17.0162 27.3195 16.5773 27.6483 16.3605C27.9772 16.142 28.4247 16.2283 28.6458 16.5509C31.2751 20.3704 32.6356 24.1687 32.8081 28.1627C32.977 32.088 32.0245 35.0315 30.9228 38.4385C29.9721 41.3802 28.8938 44.715 28.414 49.2995C28.3762 49.6626 28.0635 49.9322 27.7005 49.9322Z" fill="#006565"/>
<path d="M47.4858 41.6465C47.4858 41.6465 47.4751 41.6465 47.4679 41.6465C47.0707 41.6377 46.7562 41.3151 46.7652 40.9256C46.9251 34.256 44.3695 31.3671 42.3171 29.0458C42.0349 28.7268 41.769 28.4272 41.5191 28.1258C40.6799 27.1193 38.4172 23.7634 38.0218 20.374C37.666 17.3247 38.8162 15.1303 38.8665 15.0369C39.0516 14.6914 39.4847 14.5592 39.837 14.739C40.1874 14.9188 40.324 15.3436 40.1407 15.689C40.1263 15.7173 39.1486 17.6208 39.4506 20.2136C39.8046 23.2505 41.9199 26.3773 42.6334 27.2339C42.8706 27.5177 43.1294 27.812 43.4044 28.1222C45.5035 30.4947 48.3772 33.7431 48.2047 40.9591C48.1957 41.3433 47.8758 41.6482 47.4858 41.6482V41.6465Z" fill="#006565"/>
<path d="M41.343 19.8681C41.0051 19.8681 40.7032 19.6337 40.6385 19.2953C40.563 18.9128 40.8182 18.5427 41.2082 18.4704C44.4252 17.8641 46.7525 15.9164 46.7525 14.8994C46.7525 13.4259 44.4414 11.9048 41.9037 11.7074C38.2051 11.4201 33.89 12.4565 31.9221 13.1157C28.9837 14.0992 26.9151 15.3912 25.2545 16.4293C23.5939 17.4675 22.2801 18.2871 20.7831 18.4263C19.5682 18.5392 18.9877 18.0439 18.7163 17.6085C17.5679 15.7649 20.1469 11.5276 20.9646 10.2727C21.1784 9.94484 21.6224 9.8479 21.9566 10.0576C22.2909 10.2674 22.3898 10.7028 22.1759 11.0306C20.7274 13.2567 19.4837 16.135 19.9438 16.8735C20.0534 17.0498 20.4308 17.0427 20.6483 17.0216C21.8003 16.9158 22.9828 16.1755 24.4817 15.2396C26.2088 14.1609 28.3564 12.8178 31.4584 11.7797C33.5288 11.087 38.0829 9.99243 42.0169 10.3009C44.9859 10.5318 48.1903 12.3543 48.1903 14.8977C48.1903 17.1062 44.7199 19.2424 41.4796 19.854C41.4346 19.8628 41.3879 19.8664 41.343 19.8664V19.8681Z" fill="#006565"/>
<path d="M33.8163 8.9419C32.8602 8.9419 31.9419 8.7533 31.1457 8.38316C29.8895 7.80151 29.0735 6.84443 28.8471 5.68995C28.3978 3.39331 30.5203 1.05614 33.5791 0.478016C35.0223 0.20658 36.4654 0.358162 37.6462 0.90456C38.9024 1.48621 39.7183 2.44329 39.9448 3.59777C40.3941 5.89441 38.2716 8.23158 35.211 8.80794C34.7437 8.89607 34.2746 8.94013 33.8163 8.94013V8.9419ZM34.9773 1.75765C34.6089 1.75765 34.2297 1.7929 33.8505 1.86516C31.6076 2.28818 29.9632 3.91856 30.2579 5.42556C30.3945 6.12706 30.9282 6.72458 31.7586 7.11058C32.6643 7.53007 33.7948 7.64288 34.9396 7.42784C37.1825 7.00483 38.8269 5.37445 38.5322 3.86745C38.3956 3.16594 37.8618 2.56843 37.0315 2.18243C36.4259 1.90218 35.7214 1.75765 34.9791 1.75765H34.9773Z" fill="#006565"/>
<path d="M32.1647 49.6608C32.1234 49.6608 32.0839 49.6573 32.0425 49.6503C31.6507 49.5833 31.3883 49.2202 31.4566 48.836C31.7029 47.4294 33.9601 35.028 37.2472 32.823C37.8906 32.3912 38.4693 32.3894 38.8413 32.4634C42.0996 33.1138 44.5852 39.3163 44.5852 41.6482C44.5852 42.0377 44.2635 42.3532 43.8663 42.3532C43.4691 42.3532 43.1474 42.0377 43.1474 41.6482C43.1474 39.5401 40.7931 34.2912 38.5538 33.8453C38.4603 33.8259 38.3058 33.8206 38.0577 33.988C35.6962 35.5726 33.5144 45.4166 32.8728 49.0774C32.8135 49.4211 32.508 49.6626 32.1647 49.6626V49.6608Z" fill="#006565"/>
<path d="M45.8881 50.1631C45.1243 50.1631 44.3857 49.9762 43.7458 49.6132C42.8347 49.0967 42.2308 48.2895 42.0439 47.3394C41.6665 45.4077 43.1707 43.4953 45.3993 43.0758C46.4632 42.8748 47.5397 43.0405 48.4257 43.5428C49.3369 44.0593 49.9408 44.8665 50.1277 45.8166C50.3146 46.7666 50.0576 47.736 49.4052 48.5468C48.7726 49.3347 47.8363 49.8793 46.7705 50.0802C46.4758 50.1366 46.1793 50.1631 45.8863 50.1631H45.8881ZM46.2835 44.0505C46.0588 44.0505 45.8306 44.0716 45.6023 44.1139C43.9579 44.4241 42.8365 45.7813 43.1025 47.1403C43.2283 47.7836 43.6488 48.337 44.285 48.6966C44.9464 49.0703 45.7569 49.1937 46.5692 49.0403C47.3798 48.887 48.0879 48.4798 48.5605 47.8911C49.0152 47.3253 49.1967 46.6591 49.0691 46.0157C48.9433 45.3724 48.5228 44.819 47.8866 44.4576C47.4103 44.188 46.8586 44.0487 46.2835 44.0487V44.0505Z" fill="#FFB700"/>
<path d="M110.443 39.0492C110.443 39.7629 110.253 40.4051 109.871 40.976C109.489 41.5184 109.049 41.9466 108.55 42.2606C107.816 41.7753 107.008 41.3614 106.127 41.0189C105.246 40.6763 104.234 40.505 103.088 40.505C101.591 40.505 100.314 40.819 99.2569 41.4471C98.2293 42.0465 97.4365 42.9314 96.8787 44.1018C96.3502 45.2436 96.0859 46.6281 96.0859 48.2552C96.0859 50.7672 96.7319 52.6798 98.0237 53.9929C99.345 55.306 101.165 55.9626 103.485 55.9626C104.689 55.9626 105.702 55.8056 106.524 55.4916C107.375 55.1776 108.183 54.8208 108.946 54.4211C109.445 54.7922 109.827 55.2632 110.091 55.8341C110.385 56.405 110.531 57.0616 110.531 57.8038C110.531 58.4603 110.355 59.0598 110.003 59.6022C109.651 60.1445 109.049 60.6013 108.197 60.9724C107.669 61.2007 106.92 61.4291 105.951 61.6575C104.982 61.8858 103.808 62 102.428 62C99.7854 62 97.3778 61.5147 95.2051 60.5442C93.0618 59.5736 91.3442 58.075 90.0523 56.0482C88.7898 54.0215 88.1585 51.4238 88.1585 48.2552C88.1585 45.2865 88.7751 42.7887 90.0082 40.762C91.2414 38.7067 92.9003 37.1509 94.9849 36.0947C97.0989 35.01 99.4184 34.4676 101.943 34.4676C103.734 34.4676 105.261 34.6674 106.524 35.0671C107.786 35.4667 108.755 36.0091 109.43 36.6942C110.106 37.3793 110.443 38.1643 110.443 39.0492Z" fill="#006565"/>
<path d="M135.618 50.8243C135.618 53.108 135.134 55.0777 134.165 56.7333C133.225 58.389 131.889 59.6735 130.157 60.587C128.454 61.4719 126.428 61.9144 124.079 61.9144C121.76 61.9144 119.734 61.4719 118.002 60.587C116.269 59.7021 114.919 58.4318 113.95 56.7761C113.01 55.1205 112.54 53.1365 112.54 50.8243C112.54 48.5692 113.025 46.6138 113.994 44.9582C114.963 43.3025 116.313 42.0322 118.046 41.1473C119.778 40.2339 121.789 39.7771 124.079 39.7771C126.399 39.7771 128.41 40.2339 130.113 41.1473C131.845 42.0608 133.196 43.3453 134.165 45.001C135.134 46.6567 135.618 48.5978 135.618 50.8243ZM124.079 45.472C122.875 45.472 121.921 45.943 121.217 46.885C120.541 47.7985 120.204 49.1116 120.204 50.8243C120.204 52.5942 120.541 53.9358 121.217 54.8493C121.892 55.7628 122.846 56.2195 124.079 56.2195C125.312 56.2195 126.267 55.7628 126.942 54.8493C127.617 53.9073 127.955 52.5656 127.955 50.8243C127.955 49.1401 127.603 47.827 126.898 46.885C126.223 45.943 125.283 45.472 124.079 45.472Z" fill="#006565"/>
<path d="M148.517 56.6049C149.016 56.6049 149.56 56.562 150.147 56.4764C150.763 56.3622 151.219 56.2195 151.512 56.0482V52.6227L148.341 52.8796C147.519 52.9367 146.844 53.108 146.315 53.3935C145.787 53.6789 145.522 54.1071 145.522 54.678C145.522 55.2489 145.743 55.7199 146.183 56.091C146.653 56.4336 147.431 56.6049 148.517 56.6049ZM148.165 39.7771C151.365 39.7771 153.92 40.4194 155.828 41.704C157.766 42.96 158.735 44.9296 158.735 47.6129V57.2043C158.735 57.9465 158.515 58.5602 158.074 59.0455C157.663 59.5023 157.164 59.9019 156.577 60.2444C155.637 60.7868 154.492 61.2007 153.142 61.4862C151.791 61.7716 150.25 61.9144 148.517 61.9144C145.434 61.9144 142.953 61.3434 141.074 60.2016C139.225 59.0312 138.3 57.2757 138.3 54.9349C138.3 52.9653 138.902 51.4523 140.105 50.3961C141.339 49.34 143.203 48.6834 145.699 48.4265L151.468 47.827V47.5273C151.468 46.6995 151.086 46.1143 150.323 45.7717C149.589 45.4006 148.517 45.2151 147.108 45.2151C146.022 45.2151 144.935 45.3293 143.849 45.5576C142.792 45.786 141.838 46.0715 140.986 46.414C140.605 46.1571 140.282 45.7717 140.017 45.2579C139.753 44.7155 139.621 44.1589 139.621 43.588C139.621 42.2178 140.37 41.2472 141.867 40.6763C142.719 40.3623 143.717 40.1339 144.862 39.9912C146.036 39.8485 147.137 39.7771 148.165 39.7771Z" fill="#006565"/>
<path d="M175.38 45.5148C173.912 45.5148 172.635 45.9716 171.548 46.885C170.491 47.7985 169.963 49.1401 169.963 50.91C169.963 52.6798 170.477 53.9929 171.504 54.8493C172.532 55.7057 173.809 56.1339 175.336 56.1339C176.217 56.1339 176.995 56.0339 177.67 55.8341C178.375 55.6058 178.962 55.3774 179.432 55.149C179.99 55.5487 180.401 55.9768 180.665 56.4336C180.959 56.8903 181.105 57.447 181.105 58.1035C181.105 59.2453 180.518 60.1588 179.344 60.8439C178.199 61.529 176.554 61.8716 174.411 61.8716C171.974 61.8716 169.846 61.4576 168.025 60.6298C166.234 59.802 164.84 58.5745 163.841 56.9474C162.872 55.2918 162.388 53.2793 162.388 50.91C162.388 48.3979 162.931 46.3284 164.017 44.7013C165.104 43.0456 166.542 41.8181 168.333 41.0189C170.124 40.191 172.077 39.7771 174.191 39.7771C176.276 39.7771 177.89 40.1482 179.035 40.8904C180.21 41.6326 180.797 42.5889 180.797 43.7593C180.797 44.3016 180.665 44.8155 180.401 45.3007C180.136 45.7575 179.828 46.1571 179.476 46.4997C178.977 46.2713 178.375 46.0572 177.67 45.8574C176.965 45.629 176.202 45.5148 175.38 45.5148Z" fill="#006565"/>
<path d="M206 52.4514H198.513V48.6406C198.513 47.4702 198.205 46.6567 197.588 46.1999C197.001 45.7146 196.267 45.472 195.386 45.472C194.505 45.472 193.727 45.629 193.052 45.943C192.377 46.257 191.789 46.5996 191.29 46.9707V41.1045C191.966 40.762 192.773 40.4622 193.713 40.2053C194.652 39.9199 195.68 39.7771 196.795 39.7771C199.673 39.7771 201.919 40.4908 203.534 41.9181C205.178 43.3168 206 45.4149 206 48.2124V52.4514ZM184.948 49.9251H192.435V61.1864C192.112 61.2721 191.643 61.3577 191.026 61.4434C190.439 61.529 189.793 61.5718 189.088 61.5718C187.65 61.5718 186.593 61.3292 185.917 60.8439C185.271 60.3586 184.948 59.4594 184.948 58.1463V49.9251ZM198.513 49.9251H206V61.1864C205.677 61.2721 205.207 61.3577 204.591 61.4434C204.003 61.529 203.358 61.5718 202.653 61.5718C201.214 61.5718 200.157 61.3292 199.482 60.8439C198.836 60.3586 198.513 59.4594 198.513 58.1463V49.9251ZM192.435 53.736H184.948V33.3115C185.271 33.2259 185.726 33.1402 186.314 33.0546C186.93 32.969 187.591 32.9261 188.295 32.9261C189.763 32.9261 190.82 33.1688 191.466 33.6541C192.112 34.1108 192.435 35.01 192.435 36.3516V53.736Z" fill="#006565"/>
<path d="M111.21 28.6862V1.5506H113.164V28.6862H111.21ZM92.5315 28.6862V1.5506H94.4853V28.6862H92.5315ZM93.6647 16.1263V14.188H111.914V16.1263H93.6647Z" fill="black"/>
<path d="M128.722 29.0739C126.768 29.0739 125.023 28.6345 123.486 27.7558C121.975 26.8772 120.79 25.6496 119.93 24.0732C119.07 22.4967 118.64 20.6618 118.64 18.5685C118.64 17.0437 118.875 15.6482 119.344 14.3819C119.839 13.1155 120.516 12.0172 121.376 11.0868C122.235 10.1306 123.264 9.39409 124.463 8.87722C125.687 8.36035 127.016 8.10192 128.449 8.10192C129.855 8.10192 131.119 8.33451 132.239 8.79969C133.385 9.26487 134.349 9.9368 135.131 10.8155C135.912 11.6683 136.499 12.6891 136.889 13.8779C137.28 15.0409 137.449 16.333 137.397 17.7544L137.358 18.8011H120.086V17.0179H136.303L135.443 17.7157V16.7853C135.443 15.7516 135.183 14.7178 134.662 13.6841C134.167 12.6504 133.398 11.7846 132.356 11.0868C131.314 10.3891 129.999 10.0402 128.41 10.0402C126.925 10.0402 125.596 10.3632 124.424 11.0093C123.278 11.6554 122.366 12.5987 121.688 13.8392C121.037 15.0796 120.711 16.6173 120.711 18.4522C120.711 20.2096 121.037 21.7472 121.688 23.0653C122.34 24.3574 123.278 25.3653 124.502 26.0889C125.752 26.7867 127.276 27.1356 129.074 27.1356C130.038 27.1356 131.028 26.9805 132.044 26.6704C133.06 26.3603 134.206 25.6884 135.483 24.6546L136.499 26.0889C135.925 26.6317 135.248 27.1356 134.467 27.6008C133.685 28.0401 132.812 28.4019 131.848 28.6862C130.885 28.9446 129.842 29.0739 128.722 29.0739Z" fill="black"/>
<path d="M141.424 28.6862V0H143.378V28.6862H141.424Z" fill="black"/>
<path d="M149.247 28.6862V0H151.201V28.6862H149.247Z" fill="black"/>
<path d="M165.481 29.0739C163.449 29.0739 161.638 28.6216 160.049 27.7171C158.486 26.8126 157.248 25.5592 156.337 23.9569C155.451 22.3546 155.008 20.5326 155.008 18.491C155.008 16.4752 155.451 14.692 156.337 13.1414C157.248 11.5649 158.486 10.3374 160.049 9.45869C161.638 8.55417 163.449 8.10192 165.481 8.10192C167.513 8.10192 169.31 8.55417 170.873 9.45869C172.462 10.3374 173.7 11.5649 174.585 13.1414C175.471 14.692 175.914 16.4752 175.914 18.491C175.914 20.5326 175.471 22.3546 174.585 23.9569C173.7 25.5592 172.462 26.8126 170.873 27.7171C169.31 28.6216 167.513 29.0739 165.481 29.0739ZM165.481 27.1356C167.096 27.1356 168.529 26.7609 169.779 26.0114C171.056 25.262 172.045 24.2411 172.749 22.949C173.478 21.6568 173.843 20.1708 173.843 18.491C173.843 16.8628 173.478 15.4156 172.749 14.1493C172.045 12.8571 171.056 11.8492 169.779 11.1256C168.529 10.402 167.096 10.0402 165.481 10.0402C163.839 10.0402 162.38 10.402 161.104 11.1256C159.853 11.8492 158.863 12.8571 158.134 14.1493C157.431 15.4156 157.079 16.8628 157.079 18.491C157.079 20.1708 157.431 21.6568 158.134 22.949C158.863 24.2411 159.853 25.262 161.104 26.0114C162.38 26.7609 163.839 27.1356 165.481 27.1356Z" fill="black"/>
</svg>
