<svg width="89" height="68" viewBox="0 0 89 68" fill="none" xmlns="http://www.w3.org/2000/svg">
<path d="M28.1771 34.424C23.1062 36.7677 18.1721 39.4327 13.6068 42.6252C10.6122 44.7354 7.73269 47.0831 5.37272 49.8512C-3.16085 60.0303 5.08912 64.8132 15.5107 65.8041C29.484 66.9546 43.5844 63.653 56.5523 58.6501C66.2341 54.7587 80.3661 47.4938 85.33 38.1907C89.4312 29.8435 80.2828 26.7775 73.4766 26.0417C66.0616 25.226 58.5454 25.9833 51.2176 27.2233C50.5889 27.3206 50.4104 26.4271 51.0192 26.2753C60.4214 24.1164 76.5188 22.1211 84.7251 27.9455C90.7064 32.4851 87.8129 39.1096 83.5035 43.6394C70.9322 56.721 44.7782 65.3291 26.783 67.2271C-4.42412 70.4274 -9.4812 53.5032 17.5513 38.3951C20.8533 36.5614 24.2763 34.9515 27.7865 33.5421C28.3834 33.3183 28.7423 34.1553 28.1811 34.424H28.1771Z" fill="#FFB700"/>
<path d="M30.5669 54.7646C30.5391 54.7646 30.5133 54.7646 30.4855 54.7607C30.0493 54.716 29.7319 54.3344 29.7776 53.9062C30.3229 48.6833 31.5386 44.9184 32.6115 41.5994C33.7816 37.9767 34.793 34.8464 34.6185 30.7857C34.442 26.6705 33.028 22.7402 30.2952 18.767C30.0492 18.4108 30.1464 17.9261 30.5093 17.6866C30.8723 17.4453 31.3661 17.5406 31.61 17.8969C34.5114 22.1153 36.0126 26.3103 36.203 30.7215C36.3894 35.0567 35.3384 38.3076 34.1227 42.0705C33.0736 45.3194 31.8837 49.0025 31.3542 54.0658C31.3125 54.4668 30.9675 54.7646 30.5669 54.7646Z" fill="#006565"/>
<path d="M52.3996 45.6135C52.3996 45.6135 52.3877 45.6135 52.3798 45.6135C51.9415 45.6038 51.5944 45.2475 51.6043 44.8173C51.7808 37.4512 48.9608 34.2606 46.696 31.6968C46.3846 31.3445 46.0911 31.0136 45.8155 30.6807C44.8893 29.5691 42.3925 25.8627 41.9562 22.1193C41.5636 18.7516 42.8328 16.328 42.8883 16.2248C43.0926 15.8433 43.5705 15.6973 43.9592 15.8958C44.3459 16.0944 44.4967 16.5635 44.2944 16.9451C44.2785 16.9762 43.1997 19.0786 43.5328 21.9421C43.9235 25.2962 46.2577 28.7496 47.045 29.6957C47.3068 30.0091 47.5924 30.3342 47.8958 30.6768C50.2121 33.297 53.3832 36.8847 53.1928 44.8543C53.1829 45.2787 52.8299 45.6154 52.3996 45.6154V45.6135Z" fill="#006565"/>
<path d="M45.6211 21.5606C45.2482 21.5606 44.9151 21.3017 44.8437 20.9279C44.7604 20.5055 45.042 20.0967 45.4723 20.0169C49.0222 19.3472 51.5904 17.1962 51.5904 16.073C51.5904 14.4456 49.0401 12.7656 46.2398 12.5476C42.1585 12.2303 37.3969 13.3749 35.2253 14.1029C31.9828 15.1892 29.7002 16.6161 27.8678 17.7627C26.0353 18.9092 24.5856 19.8144 22.9337 19.9682C21.593 20.0928 20.9525 19.5458 20.653 19.065C19.3858 17.0288 22.2316 12.349 23.134 10.963C23.37 10.6009 23.8598 10.4938 24.2287 10.7255C24.5975 10.9571 24.7066 11.438 24.4706 11.8C22.8722 14.2587 21.4998 17.4376 22.0075 18.2532C22.1285 18.4479 22.545 18.4401 22.7849 18.4167C24.0561 18.2999 25.3611 17.4823 27.015 16.4487C28.9208 15.2573 31.2907 13.774 34.7137 12.6274C36.9983 11.8623 42.0236 10.6535 46.3648 10.9941C49.6409 11.2491 53.1769 13.262 53.1769 16.071C53.1769 18.5102 49.3474 20.8695 45.7718 21.545C45.7222 21.5547 45.6707 21.5586 45.6211 21.5586V21.5606Z" fill="#006565"/>
<path d="M37.3156 9.49323C36.2606 9.49323 35.2472 9.28494 34.3686 8.87614C32.9824 8.23374 32.082 7.1767 31.8321 5.90164C31.3364 3.36515 33.6785 0.783882 37.0538 0.145378C38.6463 -0.154407 40.2388 0.0130063 41.5417 0.61647C42.928 1.25887 43.8283 2.3159 44.0782 3.59096C44.574 6.12746 42.2319 8.70873 38.8545 9.34528C38.3389 9.44262 37.8213 9.49128 37.3156 9.49128V9.49323ZM38.5967 1.55865C38.1902 1.55865 37.7717 1.59758 37.3533 1.6774C34.8783 2.1446 33.0637 3.94525 33.3889 5.60965C33.5397 6.38441 34.1287 7.04433 35.0449 7.47065C36.0444 7.93396 37.2918 8.05854 38.5551 7.82105C41.0301 7.35385 42.8447 5.55319 42.5194 3.8888C42.3687 3.11403 41.7797 2.45411 40.8635 2.0278C40.1952 1.71828 39.4178 1.55865 38.5987 1.55865H38.5967Z" fill="#006565"/>
<path d="M35.4931 54.4649C35.4475 54.4649 35.4038 54.461 35.3582 54.4532C34.9259 54.3792 34.6364 53.9782 34.7117 53.5538C34.9834 52.0004 37.4743 38.3037 41.1015 35.8685C41.8115 35.3915 42.45 35.3896 42.8606 35.4713C46.456 36.1897 49.1988 43.0399 49.1988 45.6154C49.1988 46.0456 48.8438 46.394 48.4055 46.394C47.9672 46.394 47.6122 46.0456 47.6122 45.6154C47.6122 43.2872 45.0143 37.49 42.5432 36.9975C42.4401 36.9761 42.2696 36.9703 41.9959 37.1552C39.39 38.9053 36.9825 49.7773 36.2745 53.8205C36.209 54.2001 35.8719 54.4668 35.4931 54.4668V54.4649Z" fill="#006565"/>
<path d="M50.6365 55.0196C49.7936 55.0196 48.9786 54.8132 48.2726 54.4122C47.2671 53.8419 46.6008 52.9503 46.3945 51.901C45.978 49.7675 47.6379 47.6554 50.0971 47.1921C51.2711 46.9702 52.459 47.1531 53.4367 47.7079C54.4422 48.2783 55.1085 49.1699 55.3148 50.2191C55.521 51.2684 55.2374 52.339 54.5176 53.2345C53.8195 54.1047 52.7862 54.7062 51.6102 54.9281C51.285 54.9904 50.9578 55.0196 50.6345 55.0196H50.6365ZM51.0728 48.2686C50.8249 48.2686 50.573 48.2919 50.3212 48.3387C48.5066 48.6813 47.2691 50.1802 47.5626 51.6811C47.7014 52.3916 48.1655 53.0028 48.8675 53.4C49.5973 53.8127 50.4917 53.9489 51.3881 53.7796C52.2825 53.6102 53.0639 53.1605 53.5855 52.5103C54.0872 51.8855 54.2875 51.1496 54.1467 50.4391C54.0079 49.7286 53.5438 49.1173 52.8418 48.7183C52.3162 48.4204 51.7074 48.2666 51.0728 48.2666V48.2686Z" fill="#FFB700"/>
</svg>
