<svg width="106" height="105" viewBox="0 0 106 105" fill="none" xmlns="http://www.w3.org/2000/svg">
<path d="M96.2349 26.4171C89.2063 14.5061 78.9778 6.79186 65.5494 3.2745C52.041 -0.162919 39.3292 1.63573 27.4141 8.67045C15.4989 15.7052 7.77907 25.9775 4.25444 39.4873C0.809801 52.9173 2.60176 65.6277 9.63032 77.6187C16.6589 89.6097 26.8874 97.3239 40.3159 100.761C53.8243 104.199 66.5361 102.36 78.4513 95.2455C90.4463 88.2108 98.1662 77.9785 101.611 64.5485C105.135 51.1186 103.343 38.4081 96.2349 26.4171Z" fill="white"/>
<path d="M49.2012 87.2088L42.6 98.3604C46.9957 100.551 51.9914 101.83 57.5872 102.198C58.1627 102.246 58.7223 102.285 59.2659 102.317C60.3531 102.285 61.6724 101.966 63.2236 101.358C66.9816 99.9033 72.0996 96.7856 78.5774 92.0052L71.5066 84.4509L49.2012 87.2088ZM28.3669 29.5321L28.247 29.4121L9.89435 40.5638L9.29109 47.5186C9.20818 53.1144 10.1646 58.4703 12.1605 63.5865L12.7601 63.4666L12.76 63.7064L32.4233 68.3829L43.2271 46.5593L28.3669 29.5321ZM63.8754 2.79212C63.6995 2.80811 63.4997 2.76814 63.2759 2.67221C55.8897 1.77688 48.0153 2.0167 39.6526 3.39167C37.126 4.15909 34.6073 5.11837 32.0965 6.26951L39.7683 11.3057L48.7627 9.62699C55.3985 8.58777 60.275 8.50783 63.3923 9.38717L65.5539 3.27176C65.3301 3.2238 65.1303 3.14385 64.9545 3.03194C64.7786 3.03194 64.5788 2.99197 64.355 2.91203C64.2111 2.91203 64.0512 2.87206 63.8754 2.79212ZM96.712 39.9642L94.3181 31.6904L77.5341 24.3759L70.9283 44.281L83.5089 63.7064L97.6637 54.2335C98.385 50.876 98.0677 46.1196 96.712 39.9642Z" fill="#231F20"/>
<path d="M39.7249 3.39335C37.1504 4.16077 34.6077 5.12005 32.0969 6.27119L39.7687 11.3074M39.7687 11.3074L48.7631 9.62867C55.3989 8.58945 60.2754 8.50951 63.3927 9.38885M39.7687 11.3074C37.4165 14.8567 33.616 20.9322 28.3673 29.5337M63.3927 9.38885L65.5543 3.27344M63.3927 9.38885C67.1486 12.0269 71.8625 17.0231 77.5345 24.3776M77.5345 24.3776L94.3185 31.6921M77.5345 24.3776L70.9287 44.2827M94.3185 31.6921L95.6409 25.4088M94.3185 31.6921L96.7124 39.9659C98.0681 46.1213 98.3854 50.8777 97.6641 54.2352M97.6641 54.2352L99.1007 58.7918C100.106 62.0853 100.784 64.6034 101.135 66.3461M97.6641 54.2352L83.5093 63.7081M28.3673 29.5337L43.2275 46.561L43.1075 46.8008M28.3673 29.5337L28.2474 29.4138L9.89475 40.5655M43.1075 46.8008L52.4616 45.122C59.577 44.0029 65.7327 43.7231 70.9287 44.2827M43.1075 46.8008L32.4237 68.3846M70.9287 44.2827L83.5093 63.7081M83.5093 63.7081C81.828 68.5045 79.3072 73.4208 75.9469 78.457C74.3468 80.9352 72.8668 82.9337 71.507 84.4525M71.507 84.4525L78.5778 92.0069M71.507 84.4525L49.2016 87.2105M78.5778 92.0069L83.9742 91.5752M78.5778 92.0069C72.1 96.7873 66.998 99.905 63.2719 101.36M9.89475 40.5655L9.29149 47.5202C9.20858 53.116 10.165 58.472 12.1609 63.5882L12.7605 63.4683L12.7604 63.7081M9.89475 40.5655C7.89824 36.7124 6.80446 34.0184 6.61341 32.4835M12.7604 63.7081L32.4237 68.3846M12.7604 63.7081C11.08 66.8258 10.1581 71.6621 9.99469 78.2172M32.4237 68.3846L49.2016 87.2105M26.6057 95.1245C30.8739 96.5635 36.2054 97.6427 42.6004 98.3621M42.6004 98.3621L49.2016 87.2105M42.6004 98.3621C46.9961 100.552 52.0078 101.847 57.6355 102.247" stroke="black" stroke-width="1.72673" stroke-linejoin="round"/>
<path d="M89.6522 17.6602C92.6851 26.8533 93 36.2062 90.5966 45.7191C87.152 59.149 79.4321 69.3814 67.4371 76.4161C55.442 83.5307 42.7302 85.3294 29.3018 81.812C19.9497 79.4938 11.8781 74.7373 5.08682 67.5427C7.72063 75.6167 12.0738 82.5715 18.1463 88.4071C24.4586 94.4026 31.851 98.5195 40.3237 100.758C53.8322 104.195 66.544 102.357 78.4591 95.2419C90.4542 88.2072 98.174 77.9749 101.619 64.545C103.782 56.0713 103.786 47.5977 101.632 39.1241C99.3981 30.9702 95.4048 23.8155 89.6522 17.6602Z" fill="black" fill-opacity="0.2"/>
<path d="M65.5536 3.2674C78.5824 6.68884 88.6112 14.0673 95.6401 25.4028C95.8318 25.7385 96.0315 26.0743 96.2392 26.41C103.348 38.401 105.14 51.1115 101.615 64.5414C101.455 65.149 101.295 65.7485 101.134 66.3401C98.0751 76.7483 92.3548 85.158 83.9734 91.5692C82.23 92.8642 80.3907 94.0873 78.4555 95.2384C73.5135 98.1802 68.4521 100.219 63.2712 101.354C61.688 101.961 60.3528 102.281 59.2656 102.313C58.722 102.281 58.1784 102.257 57.6348 102.241C52.0226 102.753 46.251 102.257 40.3201 100.754C35.3004 99.4592 30.7287 97.5807 26.605 95.1185C19.876 91.0575 14.339 85.4218 9.99396 78.2112C9.88215 78.0033 9.76234 77.8035 9.63454 77.6116C2.60598 65.6206 0.81402 52.9102 4.25866 39.4802C4.8995 37.0341 5.68417 34.6998 6.61268 32.4775C10.7431 22.3731 17.6783 14.435 27.4183 8.66336C31.4167 6.31312 35.5186 4.55444 39.7242 3.38731C48.0389 2.01234 55.9054 1.7965 63.3235 2.7398C63.5153 2.78776 63.6992 2.82773 63.875 2.85971C64.0509 2.89168 64.2268 2.93165 64.4026 2.97962C64.5944 3.01159 64.7783 3.05156 64.9541 3.09952C65.13 3.16348 65.3298 3.21944 65.5536 3.2674Z" stroke="black" stroke-width="3.45346" stroke-linejoin="round"/>
</svg>
